<svg xmlns="http://www.w3.org/2000/svg" xmlns:xlink="http://www.w3.org/1999/xlink" width="1500" height="1500" viewBox="0 0 1500 1500">
  <defs>
    <clipPath id="clip-undraw_finance_re_gnv2">
      <rect width="1500" height="1500"/>
    </clipPath>
  </defs>
  <g id="undraw_finance_re_gnv2" clip-path="url(#clip-undraw_finance_re_gnv2)">
    <rect width="1500" height="1500" fill="#fff"/>
    <circle id="Ellipse_83" data-name="Ellipse 83" cx="8.278" cy="8.278" r="8.278" transform="translate(240.933 96.086)" fill="#f2f2f2"/>
    <g id="undraw_finance_re_gnv2-2" data-name="undraw_finance_re_gnv2">
      <path id="Path_653" data-name="Path 653" d="M309.558,403.172a91.086,91.086,0,1,1,91.086-91.086,91.086,91.086,0,0,1-91.086,91.086Zm0-178.377a87.291,87.291,0,1,0,87.291,87.291A87.291,87.291,0,0,0,309.558,224.8Z" transform="translate(-166.471 108)" fill="#e8cfbe"/>
      <path id="Path_654" data-name="Path 654" d="M614.015,332.086a45.543,45.543,0,1,1,45.543-45.543A45.543,45.543,0,0,1,614.015,332.086Zm0-87.291a41.748,41.748,0,1,0,41.748,41.748A41.748,41.748,0,0,0,614.015,244.8Z" transform="translate(147.699 125.953)" fill="#e8cfbe"/>
      <path id="Path_655" data-name="Path 655" d="M785.708,454.472a51.236,51.236,0,1,1,51.236-51.236,51.236,51.236,0,0,1-51.236,51.236Zm0-98.677a47.441,47.441,0,1,0,47.441,47.441A47.441,47.441,0,0,0,785.708,355.8Z" transform="translate(296.705 225.59)" fill="#e8cfbe"/>
      <path id="Path_656" data-name="Path 656" d="M1183.393,680.8H756.426a1.9,1.9,0,0,1,0-3.8h426.967a1.9,1.9,0,0,1,0,3.8Z" transform="translate(314.709 517.32)" fill="#918b87"/>
      <circle id="Ellipse_196" data-name="Ellipse 196" cx="46.608" cy="46.608" r="46.608" transform="translate(1221.615 526.59)" fill="#c95636"/>
      <path id="Path_657" data-name="Path 657" d="M672.5,460.535l-22.028,7.481-39.344-81.406,32.512-11.042Z" transform="translate(600.564 666.12)" fill="#c95636"/>
      <path id="Path_658" data-name="Path 658" d="M28.25,0H73.117V28.25H0A28.25,28.25,0,0,1,28.25,0Z" transform="translate(1206.406 1142.271) rotate(-18.76)"/>
      <path id="Path_659" data-name="Path 659" d="M688.046,486.969l-23.234,1.167-15.562-89.065,34.294-1.725Z" transform="translate(634.785 685.67)" fill="#c95636"/>
      <path id="Path_660" data-name="Path 660" d="M28.25,0H73.117V28.25H0A28.25,28.25,0,0,1,28.25,0Z" transform="translate(1254.447 1169.427) rotate(-2.877)"/>
      <path id="Path_661" data-name="Path 661" d="M830.455,553.781a19.082,19.082,0,0,0-.888-29.247l22.153-64.091-34.141,8.725-15.8,59.524a19.186,19.186,0,0,0,28.679,25.089Z" transform="translate(354.105 322.932)" fill="#c95636"/>
      <path id="Path_662" data-name="Path 662" d="M949.848,791.714a8.689,8.689,0,0,1-.9-.048l-31.54-3.339a8.487,8.487,0,0,1-7.587-7.541l-24.375-217.3L867.81,622.951l32.883,116.862a8.54,8.54,0,0,1-7.245,10.8l-31.971,3.675a8.583,8.583,0,0,1-9.229-6.292L817.316,616.482a8.508,8.508,0,0,1-.211-3.317l15.7-118.03,117.11,9.391,8.468,278.388a8.54,8.54,0,0,1-8.536,8.8Z" transform="translate(370.813 354.071)" fill="#2f2e41"/>
      <path id="Path_663" data-name="Path 663" d="M906.9,625.89c-39.235,0-83.656-15.16-86.346-16.091l-.778-.27,44.262-227.116.814.033c17.541.712,65.41,1.077,65.892,1.08l.859.006,18.45,200.425,3.3,29.316-.4.327C941.66,622.726,924.821,625.89,906.9,625.89Z" transform="translate(373.277 252.889)" fill="#b4631c"/>
      <path id="Path_664" data-name="Path 664" d="M841.432,606.964l-27.685-11.151,14.111-170.68a28.192,28.192,0,0,1,12.286-21.07l14.568-9.914h0a9.238,9.238,0,0,1,9.16-11.841l4.172.134a4.744,4.744,0,0,1,7.263,5.049l-.917,18.083Z" transform="translate(367.865 252.187)" fill="#ff8e28"/>
      <path id="Path_665" data-name="Path 665" d="M838.073,561.537l-36.147-1.522,11.71-75.322,9.7-70.874a16.935,16.935,0,0,1,21.97-14.888h0a16.921,16.921,0,0,1,11.717,18.306L847.2,494.03Z" transform="translate(357.254 267.016)" fill="#ff8e28"/>
      <path id="Path_666" data-name="Path 666" d="M853.609,610.636l-.246-.761c-.168-.521-16.458-52.776,10.8-115.133l13.669-67.984,11.681-42.687a5.1,5.1,0,0,1,3.1-3.364A4.7,4.7,0,0,1,897.635,382h0a32.636,32.636,0,0,1,24.4,2.44l16.4,8.642a18.625,18.625,0,0,1,9.453,20.728l-22.421,95.684,10.9,89.373Z" transform="translate(398.955 251.126)" fill="#ff8e28"/>
      <path id="Path_667" data-name="Path 667" d="M871.87,513.7a19.082,19.082,0,0,0,21.1-20.274l50.773-37.612L925.993,447.4l-54.749,28.2a19.186,19.186,0,0,0,.626,38.1Z" transform="translate(404.566 311.222)" fill="#c95636"/>
      <path id="Path_668" data-name="Path 668" d="M888.6,550.22l-17.148-32.011,42.293-27.835-20.639-74.026a22.383,22.383,0,0,1,17.135-27.955h0a22.444,22.444,0,0,1,25.618,14.734l27.847,81.855a8.538,8.538,0,0,1-2.869,9.512Z" transform="translate(419.666 257.866)" fill="#ff8e28"/>
      <path id="Path_669" data-name="Path 669" d="M888.275,391.134c-5.587.727-9.8-4.99-11.756-10.274s-3.444-11.436-8.3-14.291c-6.637-3.9-15.128.791-22.717-.5-8.571-1.453-14.143-10.536-14.58-19.218s3.018-17.032,6.408-25.037l1.183,9.948a19.727,19.727,0,0,1,8.621-17.243l-1.525,14.6a15.493,15.493,0,0,1,17.823-12.82l-.24,8.7c9.9-1.177,19.884-2.356,29.813-1.459s19.926,4.038,27.451,10.577C931.71,343.9,935.821,360,934.441,374.849s-7.509,28.8-13.9,42.27c-1.607,3.39-3.83,7.216-7.557,7.647-3.349.388-6.413-2.411-7.454-5.617a20.364,20.364,0,0,1,.091-10c.942-5,2.129-10.12,1.243-15.135s-4.493-9.971-9.548-10.585-10.228,5.164-7.8,9.639Z" transform="translate(383.248 191.95)"/>
      <path id="Path_670" data-name="Path 670" d="M647.717,671.213l-18.143-7.639-12.446-90.95H451.389L437.9,663.2l-16.232,8.116a3.854,3.854,0,0,0,1.724,7.3h222.83a3.854,3.854,0,0,0,1.5-7.407Z" transform="translate(14.01 423.628)" fill="#f8eee7"/>
      <path id="Path_671" data-name="Path 671" d="M1087.721,640.937H273.565a16.13,16.13,0,0,1-16.094-16.13V510h846.343V624.807a16.13,16.13,0,0,1-16.094,16.13Z" transform="translate(-131.465 367.415)" fill="#e8cfbe"/>
      <path id="Path_672" data-name="Path 672" d="M1105.017,780.158H257.08V288.925a19.467,19.467,0,0,1,19.445-19.444h809.047a19.467,19.467,0,0,1,19.445,19.444Z" transform="translate(-131.814 151.518)" fill="#f8eee7"/>
      <path id="Path_673" data-name="Path 673" d="M1037.508,727.64H290.859a15.007,15.007,0,0,1-14.991-14.99V303.26a15.008,15.008,0,0,1,14.991-14.991h746.649A15.008,15.008,0,0,1,1052.5,303.26v409.39a15.007,15.007,0,0,1-14.991,14.99Z" transform="translate(-114.951 168.382)" fill="#fff"/>
      <path id="Path_674" data-name="Path 674" d="M1016.423,630.776h-723a1.9,1.9,0,1,1,0-3.8h723a1.9,1.9,0,1,1,0,3.8Z" transform="translate(-100.893 472.42)" fill="#918b87"/>
      <path id="Path_675" data-name="Path 675" d="M927.99,632.27H321.63a1.9,1.9,0,0,1-1.9-1.9V339.744a1.9,1.9,0,1,1,3.8,0V628.475H927.99a1.9,1.9,0,1,1,0,3.8Z" transform="translate(-75.576 212.885)" fill="#3f3d56"/>
      <path id="Path_676" data-name="Path 676" d="M417.755,523.291H362.6a5.639,5.639,0,0,1-5.633-5.633V441.633A5.64,5.64,0,0,1,362.6,436h55.151a5.639,5.639,0,0,1,5.633,5.633v76.026a5.64,5.64,0,0,1-5.633,5.633Z" transform="translate(-42.15 300.991)" fill="#ff8e28"/>
      <path id="Path_677" data-name="Path 677" d="M470.755,557.4H415.6a5.639,5.639,0,0,1-5.633-5.633V403.633A5.639,5.639,0,0,1,415.6,398h55.151a5.639,5.639,0,0,1,5.633,5.633V551.768a5.639,5.639,0,0,1-5.633,5.633Z" transform="translate(5.424 266.881)" fill="#ff8e28"/>
      <path id="Path_678" data-name="Path 678" d="M523.755,523.291H468.6a5.639,5.639,0,0,1-5.633-5.633V441.633A5.639,5.639,0,0,1,468.6,436h55.151a5.639,5.639,0,0,1,5.633,5.633v76.026A5.639,5.639,0,0,1,523.755,523.291Z" transform="translate(53 300.991)" fill="#ff8e28"/>
      <path id="Path_679" data-name="Path 679" d="M576.755,570.866H521.6a5.516,5.516,0,0,1-5.633-5.378V388.378A5.516,5.516,0,0,1,521.6,383h55.151a5.516,5.516,0,0,1,5.633,5.377V565.489a5.516,5.516,0,0,1-5.633,5.377Z" transform="translate(100.574 253.416)" fill="#ff8e28"/>
      <path id="Path_680" data-name="Path 680" d="M629.755,595.1H574.6a5.639,5.639,0,0,1-5.633-5.633V361.633A5.639,5.639,0,0,1,574.6,356h55.151a5.639,5.639,0,0,1,5.633,5.633V589.469a5.639,5.639,0,0,1-5.633,5.633Z" transform="translate(148.148 229.18)" fill="#ff8e28"/>
      <ellipse id="Ellipse_197" data-name="Ellipse 197" cx="11" cy="11.5" rx="11" ry="11.5" transform="translate(337 691)" fill="#918b87"/>
      <circle id="Ellipse_198" data-name="Ellipse 198" cx="11.5" cy="11.5" r="11.5" transform="translate(437 617)" fill="#918b87"/>
      <circle id="Ellipse_199" data-name="Ellipse 199" cx="11.5" cy="11.5" r="11.5" transform="translate(538 691)" fill="#918b87"/>
      <circle id="Ellipse_200" data-name="Ellipse 200" cx="11.5" cy="11.5" r="11.5" transform="translate(638 581)" fill="#918b87"/>
      <ellipse id="Ellipse_201" data-name="Ellipse 201" cx="11.5" cy="11" rx="11.5" ry="11" transform="translate(739 540)" fill="#918b87"/>
      <path id="Path_681" data-name="Path 681" d="M357.927,271.614,257.113,196.1l-99.436,74.478-2.277-3.036,101.713-76.184,100.335,75.152,99.7-109.11.4-.163,100.574-40.522,1.419,3.52L459.372,160.6Z" transform="translate(191.492 433.77)" fill="#918b87"/>
      <circle id="Ellipse_210" data-name="Ellipse 210" cx="5.5" cy="5.5" r="5.5" transform="translate(1240 576)"/>
      <rect id="Rectangle_89" data-name="Rectangle 89" width="1500" height="1500" opacity="0"/>
    </g>
  </g>
</svg>
