<svg xmlns="http://www.w3.org/2000/svg" xmlns:xlink="http://www.w3.org/1999/xlink" width="1500" height="1500" viewBox="0 0 1500 1500">
  <defs>
    <clipPath id="clip-undraw_interview_re_e5jn">
      <rect width="1500" height="1500"/>
    </clipPath>
  </defs>
  <g id="undraw_interview_re_e5jn" clip-path="url(#clip-undraw_interview_re_e5jn)">
    <rect width="1500" height="1500" fill="#fff"/>
    <g id="undraw_interview_re_e5jn-2" data-name="undraw_interview_re_e5jn">
      <g id="Group_64" data-name="Group 64" transform="translate(0 94.648)">
        <rect id="Rectangle_407" data-name="Rectangle 407" width="23.422" height="58.555" transform="translate(864.296 60.352)" fill="#e8cfbe"/>
        <path id="Path_2030" data-name="Path 2030" d="M700.486,170.693v589.39a539.778,539.778,0,0,1-87.77-20.57q-8.325-2.7-16.55-5.67c-1.48-.52-2.96-1.07-4.43-1.61q-9.27-3.435-18.4-7.21-7.68-3.165-15.27-6.57-7.47-3.375-14.84-6.97-12.06-5.91-23.86-12.39-9.1-5.04-17.97-10.46V170.693Z" transform="translate(227.663 -56.402)" fill="#e8cfbe"/>
        <path id="Path_2031" data-name="Path 2031" d="M780.785,170.693v595.3q-14.22.015-28.44-.73-4.08-.21-8.16-.48-21.5-1.425-42.85-4.57c-.28-.04-.57-.08-.85-.13V170.693Z" transform="translate(227.663 -56.402)" fill="#f8eee7"/>
        <rect id="Rectangle_408" data-name="Rectangle 408" width="30.114" height="30.114" transform="translate(765.029 172.844)" fill="#fff"/>
        <rect id="Rectangle_409" data-name="Rectangle 409" width="30.114" height="30.114" transform="translate(813.546 172.844)" fill="#fff"/>
        <rect id="Rectangle_410" data-name="Rectangle 410" width="30.114" height="30.114" transform="translate(862.063 172.844)" fill="#fff"/>
        <rect id="Rectangle_411" data-name="Rectangle 411" width="30.114" height="30.114" transform="translate(765.865 241.437)" fill="#fff"/>
        <rect id="Rectangle_412" data-name="Rectangle 412" width="30.114" height="30.114" transform="translate(814.382 241.437)" fill="#fff"/>
        <rect id="Rectangle_413" data-name="Rectangle 413" width="30.114" height="30.114" transform="translate(862.899 241.437)" fill="#fff"/>
        <rect id="Rectangle_414" data-name="Rectangle 414" width="30.114" height="30.114" transform="translate(766.702 310.029)" fill="#fff"/>
        <rect id="Rectangle_415" data-name="Rectangle 415" width="30.114" height="30.114" transform="translate(815.219 310.029)" fill="#fff"/>
        <rect id="Rectangle_416" data-name="Rectangle 416" width="30.114" height="30.114" transform="translate(863.735 310.029)" fill="#fff"/>
        <rect id="Rectangle_417" data-name="Rectangle 417" width="30.114" height="30.114" transform="translate(767.539 378.622)" fill="#fff"/>
        <rect id="Rectangle_418" data-name="Rectangle 418" width="30.114" height="30.114" transform="translate(816.055 378.622)" fill="#fff"/>
        <rect id="Rectangle_419" data-name="Rectangle 419" width="30.114" height="30.114" transform="translate(864.572 378.622)" fill="#fff"/>
        <path id="Path_2001" data-name="Path 2001" d="M1403.582,1044.266c-43.209,32.906-95.852,66.239-147.609,81.955a209.166,209.166,0,0,1-45.9,8.879,138.775,138.775,0,0,1-43.447-3.371c-37.353-9.291-72-25.562-105.523-44.571-10.953-6.22-21.779-12.725-32.542-19.373-17.569-10.858-34.963-22.1-52.405-33.064-2.612-1.662-5.207-3.292-7.819-4.906h-.016q-6.315-3.965-12.662-7.819c-.744-.459-1.488-.9-2.247-1.361q-11.99-7.265-24.39-14.2c-1.013-.554-2.026-1.124-3.039-1.678a534.609,534.609,0,0,0-49.256-24.105c-11.048-4.653-22.238-8.848-33.539-12.425h-.016c-4.321-1.361-8.658-2.643-13.01-3.814a272.268,272.268,0,0,0-39.791-7.787,217.572,217.572,0,0,0-55.729.443c-1.25.174-2.485.348-3.735.554-50.015,8.009-95.662,35.011-145.9,41.374-1.63.206-3.245.4-4.875.538-.7.063-1.393.143-2.089.19a199.718,199.718,0,0,1-43.811-1.076C493.666,993.3,454.16,976.7,418.6,955.774c-83.143-48.923-150.568-124.12-191.562-211.2a470.8,470.8,0,0,1-18.724-45.789,440.752,440.752,0,0,1-24.8-134.3c-3.846-158.847,86.419-318.215,228.14-390.057,141.737-71.842,328.186-48.084,442.494,62.282,69.341,66.951,109.464,157.675,161.648,238.729,52.184,81.038,126.352,158.451,222.015,170.258,48.733,6.014,99.73-5.619,146.438,9.512,25.862,8.389,47.926,24.438,65.7,44.887a201.3,201.3,0,0,1,29.724,45.9,224.621,224.621,0,0,1,13.817,37.258c.649,2.358,1.25,4.717,1.836,7.075C1518.586,885.357,1481.406,984.976,1403.582,1044.266Z" transform="translate(-92.389 115.556)" fill="#f8eee7"/>
        <rect id="Rectangle_370" data-name="Rectangle 370" width="229.501" height="80.721" rx="25.5" transform="translate(343.712 987.791)" fill="#e8cfbe"/>
        <path id="Path_2002" data-name="Path 2002" d="M450.954,638.217v67.157a198.714,198.714,0,0,1-45.9-.886v-66.27Z" transform="translate(36.79 409.719)" fill="#e8cfbe"/>
        <path id="Path_2003" data-name="Path 2003" d="M625.668,740.439c-1.25.174-2.485.348-3.735.554C571.917,749,526.27,776,476.033,782.367c-1.63.206-3.245.4-4.875.538-.7.063-1.393.142-2.089.19-12.266-12.013-24.533-24.8-36.055-38.05-6.252-7.17-12.3-14.482-17.98-21.89-14.751-19.12-27.255-38.778-35.517-58.088.839-9.259-4.922-30.674-7.676-47.071l-.016-.016c-1.171-6.885-1.8-12.868-1.219-16.714,3.356-22.19,21.478-19.642,27.049-41.389a122.687,122.687,0,0,1,16-11.253c.934-.554,1.883-1.108,2.865-1.662l60.462-41.785,23.108,22.665,35.169,34.5,38.113,37.369L541.022,632.4s27.034,31.165,58.641,72.712C608.147,716.271,616.963,728.189,625.668,740.439Z" transform="translate(16.585 332.188)" fill="#3c7745"/>
        <path id="Path_2004" data-name="Path 2004" d="M877.954,638.217V832.058a209.162,209.162,0,0,1-45.9,8.879V638.217Z" transform="translate(285.63 409.719)" fill="#e8cfbe"/>
        <rect id="Rectangle_371" data-name="Rectangle 371" width="229.501" height="80.721" rx="25.5" transform="translate(1033.797 1032.108)" fill="#e8cfbe"/>
        <path id="Path_2005" data-name="Path 2005" d="M679.993,703.027Q668,695.763,655.6,688.83c-1.013-.554-2.026-1.124-3.039-1.678l5.445-2.327L672.7,678.51l.142-.063.158.538Z" transform="translate(181.03 433.164)" fill="#ffb6b6"/>
        <path id="Path_2006" data-name="Path 2006" d="M883.174,824.78c-2.612-1.662-5.207-3.292-7.819-4.907h-.016q-6.315-3.965-12.662-7.819c-.744-.459-1.488-.9-2.247-1.361q-11.99-7.265-24.39-14.2c-1.013-.554-2.026-1.124-3.039-1.678a534.625,534.625,0,0,0-49.256-24.105c-11.048-4.653-22.238-8.848-33.539-12.425h-.016l-8.879-14.862-39.965-66.935-8.784-14.7S662.6,670.65,620.2,679.15c-15.432,3.1-32.494,6.141-50.4,8.705-19.136,2.722-39.205,4.891-59.148,5.935-9.512.506-18.993.76-28.331.681-24.137-.158-47.325-2.422-67.632-7.8-6.774-6.363-27.192-15.02-41.817-22.95h-.016c-6.141-3.324-11.238-6.505-13.912-9.338-15.416-16.3-2.248-29.012-15.954-46.8a123.485,123.485,0,0,1,1-19.531c.143-1.076.285-2.168.459-3.276l4.321-73.377,32.1-4.242,48.844-6.458,52.912-7,5.825,45.615s41.2-2.089,93.4-1.393c83.839,1.14,196.025,9.5,211.22,45.362,1.424,3.371,2.849,6.774,4.273,10.177q5.081,12.2,10.066,24.533c12.045,29.756,23.536,59.8,34.029,88.192,6.521,17.664,12.662,34.694,18.313,50.633,4.543,12.82,8.753,24.944,12.6,36.1,3.514,10.193,6.7,19.579,9.528,28C882.319,822.232,882.746,823.53,883.174,824.78Z" transform="translate(0.593 325.498)" fill="#3c7745"/>
        <path id="Path_2007" data-name="Path 2007" d="M535.037,478.272l-101.384-86.1,65.962-66.756,46.019,75.376,170.581,33.819a33.08,33.08,0,1,1-4.7,48.556Z" transform="translate(53.456 227.427)" fill="#c95636"/>
        <path id="Path_2008" data-name="Path 2008" d="M377.36,312.42c-11.717,38.117,99.872,129.027,99.872,129.027,1.24-9.151,64.507,69.758,68.811,62.612,12.233-20.311,25.694-70.515,39.817-76.932,8.077-3.67-38.257-54.674-38.257-54.674s-23.635-31.269-54.841-70.9a84.538,84.538,0,0,0-74.523-33.177S389.077,274.3,377.36,312.42Z" transform="translate(20.148 194.012)" fill="#ccc"/>
        <circle id="Ellipse_363" data-name="Ellipse 363" cx="68.572" cy="68.572" r="68.572" transform="translate(378.274 284.905)" fill="#c95636"/>
        <path id="Path_2009" data-name="Path 2009" d="M494.217,283.683c14.773,8.783,23.61,24.919,28.683,41.34a391.762,391.762,0,0,1,16.835,93.6l5.358,95.107,66.36,202.51c-57.512,48.664-273.69,11.06-273.69,11.06s-6.636-2.212,0-8.848,13.1-.757,6.46-7.393-2.061.757.151-5.879,0-2.212-2.212-4.424,17.124-22.12,17.124-22.12l-17.7-116.243L319.47,327.923c26.544-33.18,79.927-52.739,79.927-52.739l13.794-24.828,68.968,5.517Z" transform="translate(-13.086 183.687)" fill="#ccc"/>
        <path id="Path_2010" data-name="Path 2010" d="M493.575,196.379a31.778,31.778,0,0,1,11.289,15.859,223.209,223.209,0,0,0,.147-31.116c-.808-7.282-5.935-8.92-11.871-10.818-5.361-1.715-11.424-3.652-13.055-10.721-21.555-20.969-59.078-19.912-84.758-12.6-14.13,4.025-22.261,9.2-22.988,12.226l-.151.624-.574.287c-10.892,5.446-13.012,22.644-12.872,36.111.265,25.374,9.026,54.192,13.962,56.533.261.124.327.075.44-.019h0c7.432-5.939,16.5.451,20.483,3.925a71.318,71.318,0,0,1,63.859-60.492,111.907,111.907,0,0,0,15.391-2.581,32.4,32.4,0,0,1,7.863-1.032,22.376,22.376,0,0,1,12.836,3.812Z" transform="translate(9.797 120.667)" fill="#2f2e41"/>
        <path id="Path_2011" data-name="Path 2011" d="M397.95,495.059l-20.976-10.743a5.749,5.749,0,0,1,5.186-10.125l20.976,10.743a5.749,5.749,0,0,1-5.186,10.125Z" transform="translate(19.019 313.951)" fill="#ff8e28"/>
        <path id="Path_2012" data-name="Path 2012" d="M357.44,522.8,322.934,394.343l92.21-17.455-4.959,88.174L531.341,589.813A33.08,33.08,0,1,1,499.884,627.1Z" transform="translate(-11.067 257.425)" fill="#c95636"/>
        <path id="Path_2013" data-name="Path 2013" d="M321.366,302.726c-31.3,24.709,8.873,162.922,8.873,162.922,6.22-6.826,13.447,94.056,21.05,90.621,21.607-9.763,61.21-43.428,76.477-40.684,8.731,1.569-.416-66.728-.416-66.728s-1.682-39.16-4.845-89.5a84.539,84.539,0,0,0-42.475-69.644S352.665,278.017,321.366,302.726Z" transform="translate(-18.935 205.011)" fill="#ccc"/>
        <path id="Path_2014" data-name="Path 2014" d="M1470.49,537.841,217.858,536.417a470.792,470.792,0,0,1-18.724-45.789l1241.632,1.314a201.3,201.3,0,0,1,29.724,45.9Z" transform="translate(-83.213 323.709)" fill="#e8cfbe"/>
        <path id="Path_2015" data-name="Path 2015" d="M769.51,740.528q-9.71,4.7-19.595,9.069c-10.953-6.22-21.779-12.726-32.542-19.373l39.917-17.537Z" transform="translate(218.799 453.117)" fill="#ffb6b6"/>
        <path id="Path_2016" data-name="Path 2016" d="M1133.6,630.8q-9.734,13.058-20.085,25.593-9.544,11.562-19.595,22.681c-2.77,3.071-5.571,6.125-8.436,9.148q-7.906,8.476-16.16,16.667c-9.908,3.118-29.977,8.61-51.487,13.738-15.653,3.72-32.067,7.249-45.9,9.5a165.374,165.374,0,0,1-23.441,2.5c-9.338.079-18.819-.174-28.332-.681-10.731-.57-21.478-1.456-32.1-2.6-27.619-2.9-54.368-7.407-77.445-12.045-8.452-1.678-16.4-3.387-23.71-5.049-13.849-3.118-25.435-6.03-33.824-8.246-9.449-2.469-14.831-4.068-14.831-4.068l-23.662,39.632-12.282,20.56-9.022,15.115-2.406,4c-1.013-.554-2.026-1.124-3.039-1.678a534.618,534.618,0,0,0-49.256-24.105c-11.048-4.653-22.238-8.848-33.539-12.425h-.016c-4.321-1.361-8.658-2.643-13.01-3.815q2.042-5.484,4.131-11.048,3.893-10.375,7.945-20.94c5.84-15.258,11.887-30.737,18.107-46.138,5.1-12.646,10.288-25.245,15.543-37.67,2.422-5.729,7.344-10.763,14.229-15.179a82.831,82.831,0,0,1,10.272-5.508c19.706-8.974,48.733-14.815,80.721-18.566,2.643-.3,5.3-.6,7.977-.886,26.48-2.786,54.574-4.226,80.848-4.891,13.153-.332,25.847-.459,37.654-.475q5.721,0,11.127.032h.016c9.734.048,18.693.19,26.575.348,1.535.032,3.023.079,4.479.111h.016c.981.016,1.947.048,2.9.063,17.236.443,27.809.981,27.809.981l4.1-32.162.839-6.489.791-6.173v-.016l.095-.776.649-.016,11.4-.222,95.789-1.868,52.326-1.029-8.294,35.549-13.691,58.657C1087.761,630.2,1134.073,622.933,1133.6,630.8Z" transform="translate(145.75 344.74)" fill="#356c3d"/>
        <path id="Path_2017" data-name="Path 2017" d="M826.738,795c-3.909,1.994-7.851,3.957-11.807,5.856q-9.71,4.7-19.595,9.069c-10.953-6.22-21.779-12.725-32.542-19.373-17.569-10.858-34.963-22.1-52.405-33.064-2.612-1.662-5.207-3.292-7.819-4.907h-.016c-7.186-10.668-14.514-21.779-21.906-33.222-.111-.158-.206-.317-.3-.475q-2.849-4.368-5.666-8.8c-11.823-18.518-23.71-37.828-35.248-57.549l29.218-13.643,54.32-25.356,9.37-4.368,26.939,53.038,24.026,47.309,5.35,10.525Z" transform="translate(173.378 392.79)" fill="#356c3d"/>
        <path id="Path_2018" data-name="Path 2018" d="M782.847,663.954,921.34,530.394l38.386-108.688-56.62-24.62c-29.083,27.859-60.519,114.631-60.519,114.631l-95.3,121.247c-.743.254-1.483.524-2.215.847a27.273,27.273,0,1,0,37.778,30.143Z" transform="translate(225.456 269.196)" fill="#c95636"/>
        <path id="Path_2019" data-name="Path 2019" d="M828.86,452.3l71.819,22.8.271-.045c26.731-4.478,48.912-48.136,62.811-83.972A50.01,50.01,0,0,0,938.3,327.736h0a50.12,50.12,0,0,0-52.492,6.623l-36.879,30.135Z" transform="translate(283.77 226.115)" fill="#ff8e28"/>
        <path id="Path_2020" data-name="Path 2020" d="M1038.96,787.1l.42-.557c22.408-29.718-8.24-103.312-12.873-113.986l20.835-6.172-3.632-39.67-1.749-17.689,16.2-15.384.055-.393,11.141-79.285,14.577-52.475a115.993,115.993,0,0,0-30.01-113.223l-29.8-29.587-35.7-55.882-59.859-1.545L907.037,299.5a87.276,87.276,0,0,0-69.8,87.335l2.026,101.8L817.781,614.753l-.6,22.91L796.1,659.909l3.9,22.49-15.769,6.281-7.716,31.958c-2.947,3.687-22.406,28.284-22.583,35.141-.027,1.029.708,2.044,2.31,3.19,12.6,9.012,83,28.539,114.681,16.8,33.75-12.494,166.024,10.971,167.356,11.21Z" transform="translate(240.1 190.04)" fill="#ff8e28"/>
        <circle id="Ellipse_364" data-name="Ellipse 364" cx="79.302" cy="79.302" r="79.302" transform="translate(1114.062 275.562)" fill="#c95636"/>
        <path id="Path_2021" data-name="Path 2021" d="M909.455,318.222a215.679,215.679,0,0,0,36.69-2.564c12.028-2.446,38.935-22.164,46.436-34.029h0c5.573-8.816,9.136-22.582,11.145-32.578a96.413,96.413,0,0,0-16.862-76.54,30.461,30.461,0,0,0-12.3-10.5c-.441-.172-.894-.325-1.353-.456a37.582,37.582,0,0,1-18.7-11.568,30.978,30.978,0,0,0-3.108-3.2,46.294,46.294,0,0,0-19.314-9.7c-11.481-3.073-28.1-.023-49.385,9.075-10.7,4.571-22.392,2.917-31.39.965a2.944,2.944,0,0,0-2.772.95,20.784,20.784,0,0,1-14.126,5.631c-3.216.141-6.59,4.594-10.669,10.4-.926,1.318-2.005,2.857-2.784,3.792l-.1-1.8-1.819,2.006a25.221,25.221,0,0,0,11.387,41.09,49.182,49.182,0,0,0,9.892,1.576c2.025.182,4.119.371,6.126.719A38.025,38.025,0,0,1,874.7,236.173,9.944,9.944,0,0,0,889.712,241a16.431,16.431,0,0,1,14.971-2.726,10.908,10.908,0,0,1,4.821,5.468,14.213,14.213,0,0,0,5.393,6.293c8.151,4.2,8.713,22.819,5.785,38.338-2.822,14.959-8.4,25.781-13.564,26.316-3.976.411-4.431.694-4.718,1.4l-.257.629.447.589a16.24,16.24,0,0,0,6.866.918Z" transform="translate(274.234 117.005)" fill="#2f2e41"/>
        <path id="Path_2022" data-name="Path 2022" d="M977.764,412.051,947.187,351.09c-44.382,3.032-132.469,54.348-132.469,54.348L648.055,440.774a30.11,30.11,0,1,0,8.209,51.453l212.006-15.2Z" transform="translate(154.559 242.391)" fill="#c95636"/>
        <path id="Path_2023" data-name="Path 2023" d="M854.16,462.107l79.857-59.345,14.067-50.691A55.368,55.368,0,0,0,931.43,296.05h0a55.238,55.238,0,0,0-75.378,2.432c-30.051,30-64.326,71.842-56.964,100.859l.075.294Z" transform="translate(265.83 202.344)" fill="#ff8e28"/>
        <rect id="Rectangle_372" data-name="Rectangle 372" width="213.673" height="28.49" transform="translate(807.462 823.184)" fill="#fff"/>
        <rect id="Rectangle_373" data-name="Rectangle 373" width="213.673" height="28.49" transform="translate(261.408 823.184)" fill="#fff"/>
        <path id="Path_2024" data-name="Path 2024" d="M441.818,412.053V547.7a6.525,6.525,0,0,0,6.52,6.519H649.356a6.525,6.525,0,0,0,6.52-6.519V412.053a6.528,6.528,0,0,0-6.519-6.512H448.337A6.528,6.528,0,0,0,441.818,412.053Z" transform="translate(58.214 274.123)" fill="#918b87"/>
        <path id="Path_2025" data-name="Path 2025" d="M444.8,412.007V544.3a3.49,3.49,0,0,0,3.484,3.484H645.946a3.49,3.49,0,0,0,3.484-3.484V412.007a3.492,3.492,0,0,0-3.484-3.492H448.281A3.492,3.492,0,0,0,444.8,412.007Z" transform="translate(59.951 275.856)" fill="#f8eee7"/>
        <path id="Path_2026" data-name="Path 2026" d="M439.489,520.29a3.91,3.91,0,0,0,3.076,1.472H657.809a3.961,3.961,0,0,0,3.872-4.773l-3.341-15.871a3.968,3.968,0,0,0-2.466-2.877,3.84,3.84,0,0,0-1.406-.265H445.893a3.838,3.838,0,0,0-1.406.265,3.968,3.968,0,0,0-2.466,2.877l-3.341,15.871A3.958,3.958,0,0,0,439.489,520.29Z" transform="translate(56.338 327.991)" fill="#918b87"/>
        <rect id="Rectangle_374" data-name="Rectangle 374" width="6.629" height="3.978" rx="0.488" transform="translate(709.277 832.803) rotate(180)" fill="#e8cfbe"/>
        <rect id="Rectangle_375" data-name="Rectangle 375" width="6.629" height="3.978" rx="0.488" transform="translate(696.019 832.803) rotate(180)" fill="#e8cfbe"/>
        <rect id="Rectangle_376" data-name="Rectangle 376" width="6.629" height="3.978" rx="0.488" transform="translate(682.76 832.803) rotate(180)" fill="#e8cfbe"/>
        <rect id="Rectangle_377" data-name="Rectangle 377" width="6.629" height="3.978" rx="0.488" transform="translate(669.501 832.803) rotate(180)" fill="#e8cfbe"/>
        <rect id="Rectangle_378" data-name="Rectangle 378" width="6.629" height="3.978" rx="0.488" transform="translate(656.242 832.803) rotate(180)" fill="#e8cfbe"/>
        <rect id="Rectangle_379" data-name="Rectangle 379" width="6.629" height="3.978" rx="0.488" transform="translate(642.983 832.803) rotate(180)" fill="#e8cfbe"/>
        <rect id="Rectangle_380" data-name="Rectangle 380" width="6.629" height="3.978" rx="0.488" transform="translate(629.725 832.803) rotate(180)" fill="#e8cfbe"/>
        <rect id="Rectangle_381" data-name="Rectangle 381" width="6.629" height="3.978" rx="0.488" transform="translate(616.466 832.803) rotate(180)" fill="#e8cfbe"/>
        <rect id="Rectangle_382" data-name="Rectangle 382" width="6.629" height="3.978" rx="0.488" transform="translate(603.207 832.803) rotate(180)" fill="#e8cfbe"/>
        <rect id="Rectangle_383" data-name="Rectangle 383" width="6.629" height="3.978" rx="0.488" transform="translate(589.948 832.803) rotate(180)" fill="#e8cfbe"/>
        <rect id="Rectangle_384" data-name="Rectangle 384" width="6.629" height="3.978" rx="0.488" transform="translate(576.689 832.803) rotate(180)" fill="#e8cfbe"/>
        <rect id="Rectangle_385" data-name="Rectangle 385" width="6.629" height="3.978" rx="0.488" transform="translate(563.431 832.803) rotate(180)" fill="#e8cfbe"/>
        <rect id="Rectangle_386" data-name="Rectangle 386" width="6.629" height="3.978" rx="0.488" transform="translate(550.172 832.803) rotate(180)" fill="#e8cfbe"/>
        <rect id="Rectangle_387" data-name="Rectangle 387" width="6.629" height="3.978" rx="0.488" transform="translate(536.913 832.803) rotate(180)" fill="#e8cfbe"/>
        <rect id="Rectangle_388" data-name="Rectangle 388" width="6.629" height="3.978" rx="0.488" transform="translate(523.654 832.803) rotate(180)" fill="#e8cfbe"/>
        <rect id="Rectangle_389" data-name="Rectangle 389" width="6.629" height="3.978" rx="0.488" transform="translate(510.396 832.803) rotate(180)" fill="#e8cfbe"/>
        <rect id="Rectangle_390" data-name="Rectangle 390" width="6.629" height="3.978" rx="0.488" transform="translate(709.434 839.432) rotate(180)" fill="#e8cfbe"/>
        <rect id="Rectangle_391" data-name="Rectangle 391" width="6.629" height="3.978" rx="0.488" transform="translate(696.175 839.432) rotate(180)" fill="#e8cfbe"/>
        <rect id="Rectangle_392" data-name="Rectangle 392" width="6.629" height="3.978" rx="0.488" transform="translate(682.917 839.432) rotate(180)" fill="#e8cfbe"/>
        <rect id="Rectangle_393" data-name="Rectangle 393" width="6.629" height="3.978" rx="0.488" transform="translate(669.658 839.432) rotate(180)" fill="#e8cfbe"/>
        <rect id="Rectangle_394" data-name="Rectangle 394" width="6.629" height="3.978" rx="0.488" transform="translate(656.399 839.432) rotate(180)" fill="#e8cfbe"/>
        <rect id="Rectangle_395" data-name="Rectangle 395" width="6.629" height="3.978" rx="0.488" transform="translate(643.14 839.432) rotate(180)" fill="#e8cfbe"/>
        <rect id="Rectangle_396" data-name="Rectangle 396" width="6.629" height="3.978" rx="0.488" transform="translate(629.881 839.432) rotate(180)" fill="#e8cfbe"/>
        <rect id="Rectangle_397" data-name="Rectangle 397" width="6.629" height="3.978" rx="0.488" transform="translate(616.623 839.432) rotate(180)" fill="#e8cfbe"/>
        <rect id="Rectangle_398" data-name="Rectangle 398" width="6.629" height="3.978" rx="0.488" transform="translate(603.364 839.432) rotate(180)" fill="#e8cfbe"/>
        <rect id="Rectangle_399" data-name="Rectangle 399" width="6.629" height="3.978" rx="0.488" transform="translate(590.105 839.432) rotate(180)" fill="#e8cfbe"/>
        <rect id="Rectangle_400" data-name="Rectangle 400" width="6.629" height="3.978" rx="0.488" transform="translate(576.846 839.432) rotate(180)" fill="#e8cfbe"/>
        <rect id="Rectangle_401" data-name="Rectangle 401" width="6.629" height="3.978" rx="0.488" transform="translate(563.587 839.432) rotate(180)" fill="#e8cfbe"/>
        <rect id="Rectangle_402" data-name="Rectangle 402" width="6.629" height="3.978" rx="0.488" transform="translate(550.329 839.432) rotate(180)" fill="#e8cfbe"/>
        <rect id="Rectangle_403" data-name="Rectangle 403" width="6.629" height="3.978" rx="0.488" transform="translate(537.069 839.432) rotate(180)" fill="#e8cfbe"/>
        <rect id="Rectangle_404" data-name="Rectangle 404" width="6.629" height="3.978" rx="0.488" transform="translate(523.811 839.432) rotate(180)" fill="#e8cfbe"/>
        <rect id="Rectangle_405" data-name="Rectangle 405" width="6.629" height="3.978" rx="0.488" transform="translate(510.552 839.432) rotate(180)" fill="#e8cfbe"/>
        <rect id="Rectangle_406" data-name="Rectangle 406" width="53.035" height="3.978" rx="0.488" transform="translate(645.792 847.387) rotate(180)" fill="#e8cfbe"/>
      </g>
      <rect id="Rectangle_420" data-name="Rectangle 420" width="1500" height="1500" fill="#fff" opacity="0"/>
    </g>
  </g>
</svg>
