<svg xmlns="http://www.w3.org/2000/svg" xmlns:xlink="http://www.w3.org/1999/xlink" width="1500" height="1500" viewBox="0 0 1500 1500">
  <defs>
    <clipPath id="clip-undraw_collaboration_re_vyau">
      <rect width="1500" height="1500"/>
    </clipPath>
  </defs>
  <g id="undraw_collaboration_re_vyau" clip-path="url(#clip-undraw_collaboration_re_vyau)">
    <rect width="1500" height="1500" fill="#fff"/>
    <g id="undraw_collaboration_re_vyau-2" data-name="undraw_collaboration_re_vyau">
      <path id="Path_1573" data-name="Path 1573" d="M1083.012,1182.771H462.241a55.657,55.657,0,0,1-55.594-55.614V888.538c-1.285,1.466-2.63,2.911-4.016,4.317v234.3a59.684,59.684,0,0,0,59.61,59.63h622.518C1084.156,1185.462,1083.574,1184.116,1083.012,1182.771Zm-676.365-882a55.657,55.657,0,0,1,55.594-55.614H669.077c-.381-1.345-.743-2.67-1.084-4.016H462.241a59.684,59.684,0,0,0-59.609,59.63V666.583c1.385,1.405,2.711,2.851,4.015,4.317Zm833.531,46.9-129.7-102.736a17.534,17.534,0,0,0-10.882-3.795H984.171c-.322,1.345-.682,2.69-1.064,4.016H1099.6a13.646,13.646,0,0,1,8.392,2.911l129.7,102.756a10.332,10.332,0,0,1,3.935,8.151V956.941c1.345.04,2.691.141,4.015.241v-598.2a14.327,14.327,0,0,0-5.46-11.3Z" transform="translate(-48.59 89.652)" fill="#e8cfbe"/>
      <path id="Path_1574" data-name="Path 1574" d="M885.926,351.006H781.271A28.807,28.807,0,0,1,752.464,322.2V244.9a1.8,1.8,0,0,1,2.918-1.411l131.661,104.3a1.8,1.8,0,0,1-1.118,3.212Z" transform="translate(303.947 91.625)" fill="#e8cfbe"/>
      <path id="Path_1575" data-name="Path 1575" d="M886.933,354.021H782.279a30.85,30.85,0,0,1-30.815-30.815v-77.3a3.809,3.809,0,0,1,6.173-2.986L889.3,347.228a3.808,3.808,0,0,1-2.365,6.793Zm0-4.016ZM755.48,246.339v76.867a26.83,26.83,0,0,0,26.8,26.8H886.338Z" transform="translate(302.941 90.617)" fill="#e8cfbe"/>
      <path id="Path_1576" data-name="Path 1576" d="M877.226,377.664H569.352a14.4,14.4,0,0,1,0-28.807H877.226a14.4,14.4,0,1,1,0,28.807Z" transform="translate(104.904 198.198)" fill="#f8eee7"/>
      <path id="Path_1577" data-name="Path 1577" d="M936.64,401.877H569.352a14.4,14.4,0,1,1,0-28.807H936.64a14.4,14.4,0,0,1,0,28.807Z" transform="translate(104.904 222.598)" fill="#f8eee7"/>
      <path id="Path_1578" data-name="Path 1578" d="M877.226,486.171H569.352a14.4,14.4,0,0,1,0-28.807H877.226a14.4,14.4,0,1,1,0,28.807Z" transform="translate(104.904 307.544)" fill="#f8eee7"/>
      <path id="Path_1579" data-name="Path 1579" d="M936.64,510.383H569.352a14.4,14.4,0,1,1,0-28.807H936.64a14.4,14.4,0,0,1,0,28.807Z" transform="translate(104.904 331.944)" fill="#f8eee7"/>
      <path id="Path_1580" data-name="Path 1580" d="M877.226,594.678H569.352a14.4,14.4,0,0,1,0-28.807H877.226a14.4,14.4,0,1,1,0,28.807Z" transform="translate(104.904 416.891)" fill="#f8eee7"/>
      <path id="Path_1581" data-name="Path 1581" d="M936.64,618.89H569.352a14.4,14.4,0,0,1,0-28.807H936.64a14.4,14.4,0,1,1,0,28.807Z" transform="translate(104.904 441.29)" fill="#f8eee7"/>
      <circle id="Ellipse_44" data-name="Ellipse 44" cx="50.908" cy="50.908" r="50.908" transform="translate(495.141 534.857)" fill="#e8cfbe"/>
      <path id="Path_395" data-name="Path 395" d="M504.426,397.244a5.28,5.28,0,0,1-3.177-1.056l-.057-.043-11.964-9.152a5.317,5.317,0,0,1,6.47-8.439l7.749,5.943,18.312-23.89a5.314,5.314,0,0,1,7.451-.984h0l-.114.158.117-.158a5.321,5.321,0,0,1,.983,7.453L508.66,395.164a5.318,5.318,0,0,1-4.229,2.074Z" transform="translate(36.578 207.941)" fill="#fff"/>
      <circle id="Ellipse_44-2" data-name="Ellipse 44" cx="50.908" cy="50.908" r="50.908" transform="translate(495.141 752.71)" fill="#f8eee7"/>
      <path id="Path_395-2" data-name="Path 395" d="M504.426,505.751a5.28,5.28,0,0,1-3.177-1.056l-.057-.043L489.229,495.5a5.317,5.317,0,0,1,6.47-8.439L503.448,493l18.312-23.89a5.314,5.314,0,0,1,7.451-.984h0l-.114.158.117-.158a5.321,5.321,0,0,1,.983,7.453L508.66,503.671a5.318,5.318,0,0,1-4.229,2.073Z" transform="translate(36.578 317.287)" fill="#fff"/>
      <circle id="Ellipse_44-3" data-name="Ellipse 44" cx="50.908" cy="50.908" r="50.908" transform="translate(495.141 970.563)" fill="#f8eee7"/>
      <path id="Path_395-3" data-name="Path 395" d="M504.426,614.258a5.28,5.28,0,0,1-3.177-1.056l-.057-.043-11.964-9.152a5.317,5.317,0,0,1,6.47-8.439l7.749,5.943,18.312-23.89a5.314,5.314,0,0,1,7.451-.984h0l-.114.158.117-.158a5.321,5.321,0,0,1,.983,7.453L508.66,612.177a5.318,5.318,0,0,1-4.229,2.073Z" transform="translate(36.578 426.633)" fill="#fff"/>
      <path id="Path_1582" data-name="Path 1582" d="M935.089,773.993q-4.309,2.252-8.766,4.262-4.059,1.834-8.246,3.447c-1.02.389-2.057.778-3.095,1.167a165.9,165.9,0,0,1-25.2,6.95q-6.366,1.251-12.9,1.964-5.393.612-10.9.871c-2.613.13-5.227.185-7.858.185a166.482,166.482,0,0,1-31.059-2.909c-2.669-.482-5.282-1.056-7.9-1.686a164.534,164.534,0,0,1-36.453-13.454c-1.038-.519-2.076-1.075-3.114-1.612-1.538-.815-3.039-1.668-4.54-2.557.722-1,1.5-1.983,2.3-2.947a98.284,98.284,0,0,1,146.163-7.6,100.582,100.582,0,0,1,9.377,10.86C933.661,771.936,934.384,772.955,935.089,773.993Z" transform="translate(326.723 583.406)" fill="#ff8e28"/>
      <circle id="Ellipse_310" data-name="Ellipse 310" cx="81.374" cy="81.374" r="81.374" transform="translate(1107.172 1113.245)"/>
      <circle id="Ellipse_311" data-name="Ellipse 311" cx="60.565" cy="60.565" r="60.565" transform="translate(1098.955 1198.875) rotate(-28.663)" fill="#c95636"/>
      <path id="Path_1583" data-name="Path 1583" d="M905.559,682.815a82.372,82.372,0,0,1-47.075,14.548,50.481,50.481,0,0,0,20.007,8.231,166.1,166.1,0,0,1-67.846.382,43.915,43.915,0,0,1-14.2-4.878,17.975,17.975,0,0,1-8.767-11.724c-1.489-8.5,5.137-16.23,12.024-21.436a88.692,88.692,0,0,1,74.53-14.893c8.325,2.152,16.666,5.788,22.073,12.474s7.009,16.994,1.857,23.878Z" transform="translate(339.219 502.056)"/>
      <path id="Path_1584" data-name="Path 1584" d="M912.351,596.146c-1.324-.1-2.671-.181-4.016-.241-2.711-.141-5.441-.2-8.192-.2A166.786,166.786,0,0,0,745.709,825.469c.542,1.345,1.1,2.691,1.707,4.016a167.991,167.991,0,0,0,65.934,75.41l1.065.622c.9.542,1.786,1.064,2.671,1.546,1.506.9,3.011,1.747,4.537,2.57,1.044.542,2.088,1.084,3.112,1.606a164.164,164.164,0,0,0,36.461,13.452c2.61.643,5.22,1.2,7.891,1.687a166.565,166.565,0,0,0,31.059,2.911c2.63,0,5.241-.06,7.871-.181,3.654-.161,7.288-.462,10.882-.863q6.535-.723,12.909-1.968a167.266,167.266,0,0,0,25.2-6.947c1.044-.4,2.088-.783,3.092-1.185,2.811-1.064,5.541-2.208,8.252-3.433q4.457-2.018,8.774-4.276a168.4,168.4,0,0,0,68.644-66.657,4.929,4.929,0,0,1,.24-.441A166.735,166.735,0,0,0,912.351,596.146ZM1060.361,793.1a162.138,162.138,0,0,1-17.407,48.065c-.141.261-.281.522-.421.763a163.386,163.386,0,0,1-67.6,65.452q-4.276,2.229-8.653,4.176c-2.43,1.084-4.919,2.128-7.428,3.092-1.044.4-2.128.823-3.193,1.185a158.684,158.684,0,0,1-21.743,6.224,154.173,154.173,0,0,1-16.584,2.61c-3.433.382-6.907.643-10.42.763-2.249.1-4.5.161-6.766.161a161.4,161.4,0,0,1-30.055-2.811,155.36,155.36,0,0,1-17.849-4.377,162.914,162.914,0,0,1-25.92-10.5c-.964-.5-1.927-1-2.871-1.526-1.366-.723-2.731-1.466-4.056-2.249-1-.562-2.008-1.165-2.992-1.747-.582-.341-1.144-.683-1.726-1.044a164.183,164.183,0,0,1-63.2-71.857c-.6-1.325-1.184-2.67-1.747-4.016A163.079,163.079,0,0,1,900.144,599.418c2.751,0,5.481.06,8.192.221,1.345.04,2.691.141,4.015.241A163.215,163.215,0,0,1,1060.361,793.1Z" transform="translate(284.697 446.954)" fill="#918b87"/>
      <path id="Path_1585" data-name="Path 1585" d="M816.841,637.847c-.875-9.207-12.154-14.875-20.974-12.094S781.255,637.416,779.5,646.5a29.757,29.757,0,0,0,4.013,22.465c4.458,6.416,12.651,10.421,20.293,8.792,8.723-1.859,14.767-10.377,16.5-19.127s.012-17.771-1.7-26.524Z" transform="translate(330.496 476.521)"/>
      <path id="Path_1586" data-name="Path 1586" d="M878.668,644.4c-.876-9.207-12.154-14.875-20.975-12.094s-14.611,11.662-16.361,20.743a29.757,29.757,0,0,0,4.013,22.465c4.458,6.416,12.651,10.421,20.293,8.792,8.723-1.859,14.767-10.377,16.5-19.127s.012-17.771-1.7-26.524Z" transform="translate(392.801 483.122)"/>
      <path id="Path_1587" data-name="Path 1587" d="M744.963,315.412a165.063,165.063,0,0,1-173.554,2.761A100.316,100.316,0,0,1,588.83,294.73a99.023,99.023,0,0,1,155.5,19.588C744.536,314.671,744.758,315.042,744.963,315.412Z" transform="translate(121.492 114.257)" fill="#ff8e28"/>
      <circle id="Ellipse_312" data-name="Ellipse 312" cx="81.915" cy="81.915" r="81.915" transform="translate(690.518 177.218)"/>
      <circle id="Ellipse_313" data-name="Ellipse 313" cx="60.967" cy="60.967" r="60.967" transform="translate(689.117 311.925) rotate(-61.337)" fill="#c95636"/>
      <path id="Path_1588" data-name="Path 1588" d="M582.827,216.949a82.921,82.921,0,0,0,47.388,14.645,50.815,50.815,0,0,1-20.14,8.286,167.2,167.2,0,0,0,68.3.384,44.2,44.2,0,0,0,14.3-4.911,18.094,18.094,0,0,0,8.825-11.8c1.5-8.56-5.172-16.337-12.1-21.578a89.281,89.281,0,0,0-75.026-14.992c-8.381,2.166-16.776,5.826-22.22,12.557s-7.056,17.107-1.87,24.037Z" transform="translate(133 32.37)"/>
      <path id="Path_1589" data-name="Path 1589" d="M697.244,138.144a166.988,166.988,0,0,0-166.8,166.782,165.229,165.229,0,0,0,4.939,40.014c.341,1.345.682,2.69,1.044,4.015a166.78,166.78,0,0,0,321.738,0c.363-1.349.7-2.674,1.025-4.02a166.9,166.9,0,0,0-161.943-206.8Zm158.129,206.8c-.321,1.345-.682,2.69-1.064,4.015a163.04,163.04,0,0,1-314.03,0c-.381-1.345-.743-2.67-1.084-4.016a161.424,161.424,0,0,1-5.039-40.014,163.078,163.078,0,1,1,321.217,40.014Z" transform="translate(80.209 -14.144)" fill="#918b87"/>
      <path id="Path_1590" data-name="Path 1590" d="M475.59,603.546a165.056,165.056,0,0,1-173.548,2.771c.28-.542.581-1.084.9-1.606a99.082,99.082,0,0,1,171.7-2.751c.121.161.221.341.322.5C475.168,602.8,475.389,603.185,475.59,603.546Z" transform="translate(-149.957 404.619)" fill="#ff8e28"/>
      <path id="Path_1591" data-name="Path 1591" d="M464.682,534.7A81.526,81.526,0,1,1,440.8,476.662,81.915,81.915,0,0,1,464.682,534.7Z" transform="translate(-151.156 302.929)"/>
      <path id="Path_1592" data-name="Path 1592" d="M432.7,560.762a62.986,62.986,0,0,1-3.232,6.886,60.9,60.9,0,1,1,3.232-6.886Z" transform="translate(-136.904 327.763)" fill="#c95636"/>
      <path id="Path_1593" data-name="Path 1593" d="M549.214,478.8c-1.285-1.405-2.63-2.791-4.015-4.136a166.672,166.672,0,1,0,0,236.812c1.366-1.345,2.711-2.71,4.015-4.116a166.654,166.654,0,0,0,0-228.56ZM545.2,706.2a163.637,163.637,0,0,1-29.353,24.073c-.02.02-.04.02-.06.04a163.228,163.228,0,0,1-171.6,2.731c-.02,0-.02-.02-.04-.02A163.07,163.07,0,1,1,545.2,479.925c1.385,1.406,2.711,2.851,4.016,4.317a163.011,163.011,0,0,1,0,217.638C547.929,703.345,546.584,704.791,545.2,706.2Z" transform="translate(-191.156 276.311)" fill="#918b87"/>
      <path id="Path_1594" data-name="Path 1594" d="M440.6,470.363A43.134,43.134,0,0,0,400.825,449.2c-8.329.624-16.254,3.693-24.036,6.728l-39.562,15.432c-10.237,3.993-21.449,8.885-25.891,18.935-4.123,9.328-1.047,20.1,2.067,29.813l14.8,46.164c2.028-10.37,4.088-20.843,8.388-30.495s11.1-18.552,20.5-23.375c10.276-5.272,22.388-5.162,33.924-4.607,16.338.786,34.1,2.865,45.711,14.389a47.479,47.479,0,0,1,12.047,23.529,141.63,141.63,0,0,1,2.526,26.634,220.807,220.807,0,0,0,16.862-36.15,89.438,89.438,0,0,0,6.265-29.262c.089-10.023-2.749-20.364-9.433-27.833s-17.574-11.5-27.151-8.545" transform="translate(-142.596 299.239)"/>
      <path id="Path_1595" data-name="Path 1595" d="M314.6,356.09l-4.015-.047c.048-4.016.163-8.091.344-12.111l4.011.18C314.761,348.088,314.647,352.118,314.6,356.09Z" transform="translate(-141.35 193.234)" fill="#e8cfbe"/>
      <path id="Path_1596" data-name="Path 1596" d="M315.635,493.21l-3.992-.435c.838-7.675,1.936-15.416,3.264-23.007l3.956.692C317.55,477.966,316.464,485.62,315.635,493.21Zm7.915-45.246-3.9-.945c1.817-7.5,3.9-15.034,6.2-22.4l3.833,1.2C327.411,433.1,325.347,440.551,323.55,447.965Zm13.7-43.872L333.5,402.65c2.773-7.2,5.82-14.412,9.056-21.425l3.646,1.682C343,389.841,339.99,396.969,337.248,404.093Zm19.258-41.747-3.53-1.914c3.676-6.78,7.625-13.534,11.737-20.073l3.4,2.137c-4.066,6.467-7.971,13.145-11.606,19.85Zm24.462-38.911-3.255-2.351c4.518-6.256,9.3-12.446,14.207-18.4l3.1,2.555c-4.855,5.888-9.582,12.009-14.05,18.2ZM410.2,287.981l-2.928-2.747c5.276-5.623,10.805-11.151,16.435-16.432l2.747,2.929C420.887,276.953,415.419,282.421,410.2,287.981Zm33.509-31.428-2.554-3.1c5.952-4.908,12.14-9.685,18.392-14.2l2.351,3.255C455.716,246.977,449.6,251.7,443.71,256.554Zm37.235-26.886-2.137-3.4c6.531-4.106,13.278-8.05,20.052-11.723l1.914,3.529c-6.7,3.633-13.37,7.533-19.829,11.593ZM521.3,207.786l-1.682-3.647c7-3.228,14.192-6.27,21.384-9.042l1.443,3.747c-7.112,2.74-14.226,5.749-21.145,8.942Zm42.818-16.5-1.2-3.833c7.36-2.3,14.894-4.391,22.394-6.211l.947,3.9c-7.415,1.8-14.865,3.867-22.143,6.143Zm44.636-10.84-.693-3.955c7.589-1.33,15.329-2.431,23.005-3.272l.437,3.992c-7.591.831-15.245,1.92-22.749,3.235Z" transform="translate(-140.281 21.207)" fill="#e8cfbe"/>
      <path id="Path_1597" data-name="Path 1597" d="M482.538,176.513l-.18-4.012c4.022-.18,8.1-.3,12.111-.344l.048,4.015C490.546,176.219,486.516,176.334,482.538,176.513Z" transform="translate(31.754 20.132)" fill="#e8cfbe"/>
      <path id="Path_1598" data-name="Path 1598" d="M75.377,207.169l-2.869-2.813L58.667,218.512l-13.11-14.839-3.01,2.664,15.972,18.07Z" transform="translate(112.703 329.248)" fill="#e8cfbe"/>
      <path id="Path_1599" data-name="Path 1599" d="M222.669,59.877l-2.813-2.869,14.157-13.841L219.173,30.057l2.664-3.01,18.07,15.972Z" transform="translate(290.695 151.257)" fill="#e8cfbe"/>
      <path id="Path_1600" data-name="Path 1600" d="M786.558,198.656q-5.3-2.79-10.682-5.484l1.8-3.59q5.418,2.71,10.755,5.52Z" transform="translate(327.541 37.691)" fill="#e8cfbe"/>
      <path id="Path_1601" data-name="Path 1601" d="M1043.519,931.136l-3.716-1.523c3.021-7.372,5.927-14.891,8.635-22.351l3.774,1.37C1049.486,916.143,1046.561,923.714,1043.519,931.136Zm16.462-45.346-3.827-1.215c2.407-7.582,4.688-15.316,6.78-22.984l3.874,1.058C1064.7,870.369,1062.405,878.155,1059.981,885.789Zm12.7-46.546-3.914-.9c1.777-7.759,3.414-15.654,4.867-23.465l3.948.735c-1.463,7.864-3.112,15.814-4.9,23.627Zm8.824-47.437-3.975-.571c1.131-7.874,2.112-15.878,2.918-23.788l3.995.407c-.811,7.965-1.8,16.024-2.937,23.952Zm4.885-48.007-4.009-.242c.479-7.936.8-15.993.949-23.949l4.015.077c-.152,8.01-.474,16.123-.955,24.114Zm.918-48.247-4.014.088q-.116-5.239-.325-10.468c-.179-4.471-.413-9.007-.7-13.481l4.008-.253c.285,4.5.521,9.071.7,13.573q.211,5.265.328,10.541Zm-7.036-47.735c-.826-7.911-1.827-15.91-2.975-23.775l3.974-.581c1.156,7.92,2.164,15.973,3,23.939Zm-6.918-47.413c-1.468-7.811-3.118-15.7-4.9-23.458l3.913-.9c1.8,7.808,3.46,15.755,4.938,23.62Zm-10.761-46.7c-2.1-7.678-4.388-15.41-6.8-22.986l3.827-1.217c2.426,7.627,4.728,15.413,6.844,23.143Zm-14.525-45.677c-2.717-7.478-5.626-15-8.645-22.362l3.715-1.524c3.04,7.411,5.968,14.986,8.7,22.515Zm-18.194-44.355c-3.318-7.234-6.83-14.5-10.438-21.588l3.579-1.821c3.633,7.138,7.169,14.45,10.509,21.734Zm-21.748-42.733c-3.9-6.937-7.988-13.891-12.166-20.666l3.418-2.107c4.206,6.821,8.327,13.822,12.249,20.808Zm-25.169-40.818c-4.452-6.6-9.1-13.2-13.819-19.6l3.234-2.38c4.749,6.452,9.431,13.094,13.914,19.74ZM954.521,341.49c-4.983-6.217-10.16-12.41-15.387-18.406l3.027-2.639c5.263,6.038,10.475,12.273,15.493,18.533ZM923,305.325c-5.479-5.787-11.151-11.533-16.857-17.081l2.8-2.879c5.745,5.585,11.455,11.372,16.972,17.2Zm-34.406-33.453c-5.937-5.313-12.065-10.574-18.215-15.636l2.552-3.1c6.191,5.1,12.362,10.395,18.34,15.745Zm-37.063-30.509c-6.332-4.789-12.863-9.521-19.41-14.062l2.288-3.3c6.593,4.573,13.169,9.337,19.545,14.159Zm-39.383-27.315c-6.7-4.254-13.6-8.435-20.5-12.429l2.012-3.475c6.946,4.021,13.89,8.232,20.636,12.514Z" transform="translate(343.439 46.319)" fill="#e8cfbe"/>
      <path id="Path_1602" data-name="Path 1602" d="M911.565,586.046l-3.616-1.745q2.615-5.419,5.109-10.865l3.651,1.671Q914.2,580.591,911.565,586.046Z" transform="translate(460.635 424.514)" fill="#e8cfbe"/>
      <path id="Path_1603" data-name="Path 1603" d="M521.343,77.3l3.789-1.335-6.6-18.666,19.1-5.22L536.57,48.2l-23.262,6.36Z" transform="translate(587.104 172.574)" fill="#e8cfbe"/>
      <path id="Path_1604" data-name="Path 1604" d="M643.078,432.308l3.817-1.257,6.176,18.81,18.313-7.533,1.524,3.718-22.3,9.171Z" transform="translate(717.877 558.385)" fill="#e8cfbe"/>
      <rect id="Rectangle_272" data-name="Rectangle 272" width="1500" height="1500" fill="#fff" opacity="0"/>
      <circle id="Ellipse_318" data-name="Ellipse 318" cx="8.5" cy="8.5" r="8.5" transform="translate(739 288)"/>
      <circle id="Ellipse_320" data-name="Ellipse 320" cx="8.5" cy="8.5" r="8.5" transform="translate(207 846)"/>
      <circle id="Ellipse_322" data-name="Ellipse 322" cx="8.5" cy="8.5" r="8.5" transform="translate(1135 1223)"/>
      <circle id="Ellipse_319" data-name="Ellipse 319" cx="8.5" cy="8.5" r="8.5" transform="translate(786 288)"/>
      <circle id="Ellipse_321" data-name="Ellipse 321" cx="8.5" cy="8.5" r="8.5" transform="translate(254 846)"/>
      <circle id="Ellipse_323" data-name="Ellipse 323" cx="8.5" cy="8.5" r="8.5" transform="translate(1182 1223)"/>
    </g>
  </g>
</svg>
