<svg width="1500" height="1500" viewBox="0 0 1500 1500" fill="none" xmlns="http://www.w3.org/2000/svg">
<path d="M335.359 1092.85L322.745 1187.14H347.972L335.359 1092.85Z" fill="#3F3D56"/>
<path d="M322.081 1100.81L309.468 1195.11H334.695L322.081 1100.81Z" fill="#3F3D56"/>
<path d="M306.149 1100.81L293.535 1195.11H318.762L306.149 1100.81Z" fill="#3F3D56"/>
<path d="M1094.82 1063.63L1082.21 1157.92H1107.43L1094.82 1063.63Z" fill="#3F3D56"/>
<path d="M1112.08 1063.63L1099.47 1157.92H1124.69L1112.08 1063.63Z" fill="#3F3D56"/>
<path d="M1125.36 1083.55L1112.74 1177.84H1137.97L1125.36 1083.55Z" fill="#3F3D56"/>
<path d="M1142.62 1083.55L1130 1177.84H1155.23L1142.62 1083.55Z" fill="#3F3D56"/>
<path d="M1216.97 1098.16L1204.36 1192.45H1229.58L1216.97 1098.16Z" fill="#3F3D56"/>
<path d="M1234.23 1098.16L1221.62 1192.45H1246.84L1234.23 1098.16Z" fill="#3F3D56"/>
<path d="M1258.17 1197.77H1236.85L1237.56 1192.45L1242.05 1158.91L1242.2 1157.75L1247.51 1118.08L1253.32 1161.57L1256.14 1182.6L1258.17 1197.77Z" fill="#3F3D56"/>
<path d="M1275.43 1197.77H1254.11L1256.14 1182.6L1258.78 1162.89L1264.77 1118.08L1271.17 1165.94V1165.96L1273.04 1179.94L1275.43 1197.77Z" fill="#3F3D56"/>
<path d="M1293.39 1197.77H1270.66L1273.04 1179.94L1274.79 1166.86L1282.03 1112.77L1289.78 1170.7L1290.66 1177.29L1293.39 1197.77Z" fill="#3F3D56"/>
<path d="M1310.65 1197.77H1287.92L1290.66 1177.29L1291.48 1171.14L1299.29 1112.77L1307.26 1172.36L1307.68 1175.47L1310.65 1197.77Z" fill="#3F3D56"/>
<path d="M1321.28 1197.77H1303.86L1306.87 1175.25L1307.26 1172.36L1312.57 1132.69L1318.69 1178.49L1321.2 1197.21L1321.28 1197.77Z" fill="#3F3D56"/>
<path d="M1338.54 1197.77H1321.12L1321.2 1197.21L1323.52 1179.84L1329.83 1132.69L1336.64 1183.57L1338.54 1197.77Z" fill="#3F3D56"/>
<path d="M355.275 545.667C425.303 545.667 482.072 488.882 482.072 418.834C482.072 348.785 425.303 292 355.275 292C285.246 292 228.477 348.785 228.477 418.834C228.477 488.882 285.246 545.667 355.275 545.667Z" fill="#FF76B8"/>
<path d="M1166.52 774.035C1286.41 774.035 1383.6 676.816 1383.6 556.891C1383.6 436.965 1286.41 339.746 1166.52 339.746C1046.62 339.746 949.433 436.965 949.433 556.891C949.433 676.816 1046.62 774.035 1166.52 774.035Z" fill="#5E6EE4"/>
<path opacity="0.2" d="M1328 411.855C1348.25 459.234 1350.99 512.272 1335.75 561.491C1320.5 610.71 1288.25 652.902 1244.77 680.529C1201.29 708.156 1149.4 719.416 1098.38 712.298C1047.36 705.18 1000.54 680.148 966.271 641.675C978.641 670.621 997.154 696.532 1020.53 717.612C1043.9 738.691 1071.58 754.435 1101.64 763.753C1131.7 773.071 1163.43 775.74 1194.62 771.575C1225.82 767.41 1255.74 756.511 1282.3 739.632C1308.87 722.754 1331.45 700.3 1348.48 673.826C1365.5 647.352 1376.58 617.492 1380.92 586.313C1385.27 555.134 1382.79 523.383 1373.65 493.259C1364.51 463.135 1348.93 435.359 1328 411.855Z" fill="black"/>
<path d="M1167.11 556.891H1167.71L1178.44 1172.53H1155.78L1167.11 556.891Z" fill="#3F3D56"/>
<path d="M1206.64 892.227L1201.64 882.725L1165.75 901.623L1170.75 911.124L1206.64 892.227Z" fill="#3F3D56"/>
<path d="M648.241 1177.74C648.241 1177.74 649.158 1158.53 667.954 1160.76L648.241 1177.74Z" fill="#3F3D56"/>
<path d="M642.93 1159.46C648.126 1159.46 652.338 1155.24 652.338 1150.05C652.338 1144.85 648.126 1140.64 642.93 1140.64C637.735 1140.64 633.523 1144.85 633.523 1150.05C633.523 1155.24 637.735 1159.46 642.93 1159.46Z" fill="#5E6EE4"/>
<path d="M644.055 1165.89H641.4V1184.48H644.055V1165.89Z" fill="#3F3D56"/>
<path d="M990.795 1181.73C990.795 1181.73 991.712 1162.51 1010.51 1164.74L990.795 1181.73Z" fill="#3F3D56"/>
<path d="M985.484 1163.44C990.68 1163.44 994.892 1159.23 994.892 1154.03C994.892 1148.83 990.68 1144.62 985.484 1144.62C980.289 1144.62 976.077 1148.83 976.077 1154.03C976.077 1159.23 980.289 1163.44 985.484 1163.44Z" fill="#5E6EE4"/>
<path d="M986.609 1169.88H983.953V1188.47H986.609V1169.88Z" fill="#3F3D56"/>
<path d="M426.511 1148.52C426.511 1148.52 427.428 1129.31 446.224 1131.54L426.511 1148.52Z" fill="#3F3D56"/>
<path d="M421.2 1130.24C426.396 1130.24 430.607 1126.02 430.607 1120.83C430.607 1115.63 426.396 1111.42 421.2 1111.42C416.005 1111.42 411.793 1115.63 411.793 1120.83C411.793 1126.02 416.005 1130.24 421.2 1130.24Z" fill="#5E6EE4"/>
<path d="M422.325 1136.67H419.669V1155.27H422.325V1136.67Z" fill="#3F3D56"/>
<path d="M571.233 1123.29C571.233 1123.29 572.15 1104.07 590.946 1106.31L571.233 1123.29Z" fill="#3F3D56"/>
<path d="M565.922 1105C571.118 1105 575.329 1100.79 575.329 1095.59C575.329 1090.4 571.118 1086.18 565.922 1086.18C560.727 1086.18 556.515 1090.4 556.515 1095.59C556.515 1100.79 560.727 1105 565.922 1105Z" fill="#5E6EE4"/>
<path d="M567.047 1111.44H564.392V1130.03H567.047V1111.44Z" fill="#3F3D56"/>
<path d="M933.703 1159.15C933.703 1159.15 934.619 1139.93 953.416 1142.17L933.703 1159.15Z" fill="#3F3D56"/>
<path d="M928.392 1140.86C933.587 1140.86 937.799 1136.65 937.799 1131.45C937.799 1126.25 933.587 1122.04 928.392 1122.04C923.196 1122.04 918.985 1126.25 918.985 1131.45C918.985 1136.65 923.196 1140.86 928.392 1140.86Z" fill="#5E6EE4"/>
<path d="M929.517 1147.3H926.861V1165.89H929.517V1147.3Z" fill="#3F3D56"/>
<path d="M670.337 344.415L682.559 334.636C673.064 333.588 669.163 338.768 667.566 342.868C660.148 339.787 652.073 343.825 652.073 343.825L676.528 352.705C675.294 349.409 673.146 346.533 670.337 344.415Z" fill="#3F3D56"/>
<path d="M856.218 444.022L868.441 434.244C858.946 433.196 855.044 438.376 853.448 442.476C846.03 439.395 837.954 443.433 837.954 443.433L862.409 452.313C861.176 449.017 859.028 446.141 856.218 444.022Z" fill="#3F3D56"/>
<path d="M655.732 529.021L667.954 519.242C658.459 518.195 654.558 523.374 652.961 527.474C645.543 524.393 637.468 528.431 637.468 528.431L661.923 537.312C660.689 534.016 658.541 531.14 655.732 529.021Z" fill="#3F3D56"/>
<path d="M215.956 1110.24C220.707 1111.91 225.808 1112.33 230.768 1111.45C235.728 1110.58 240.379 1108.45 244.273 1105.25C254.191 1096.93 257.304 1083.22 259.83 1070.53L267.314 1032.98L251.647 1043.77C240.379 1051.52 228.859 1059.53 221.057 1070.76C213.255 1081.99 209.85 1097.33 216.118 1109.48" fill="#2BD832"/>
<path d="M217.296 1155.7C215.71 1144.15 214.079 1132.46 215.191 1120.79C216.18 1110.42 219.342 1100.3 225.783 1092C229.201 1087.6 233.361 1083.83 238.075 1080.86C239.304 1080.09 240.435 1082.04 239.211 1082.81C231.056 1087.96 224.747 1095.57 221.196 1104.54C217.274 1114.51 216.644 1125.38 217.325 1135.97C217.734 1142.38 218.6 1148.74 219.474 1155.1C219.544 1155.39 219.502 1155.69 219.355 1155.95C219.209 1156.2 218.97 1156.4 218.687 1156.48C218.399 1156.56 218.091 1156.52 217.832 1156.37C217.573 1156.23 217.382 1155.98 217.301 1155.7L217.296 1155.7Z" fill="#F2F2F2"/>
<path d="M1279.2 1095.55C1274.14 1097.33 1268.7 1097.77 1263.42 1096.84C1258.13 1095.91 1253.18 1093.64 1249.03 1090.24C1238.46 1081.37 1235.15 1066.77 1232.45 1053.24L1224.48 1013.24L1241.17 1024.73C1253.18 1032.99 1265.45 1041.52 1273.76 1053.49C1282.08 1065.46 1285.7 1081.8 1279.02 1094.75" fill="#2BD832"/>
<path d="M1276.62 1146.76C1278.72 1131.46 1280.88 1115.96 1279.4 1100.5C1278.1 1086.76 1273.9 1073.35 1265.37 1062.35C1260.84 1056.52 1255.33 1051.53 1249.08 1047.6C1247.45 1046.57 1245.95 1049.15 1247.57 1050.17C1258.38 1057 1266.74 1067.08 1271.45 1078.97C1276.65 1092.18 1277.48 1106.59 1276.59 1120.62C1276.05 1129.11 1274.9 1137.55 1273.74 1145.97C1273.65 1146.35 1273.71 1146.75 1273.9 1147.09C1274.09 1147.43 1274.41 1147.69 1274.78 1147.8C1275.16 1147.91 1275.57 1147.86 1275.91 1147.66C1276.26 1147.46 1276.51 1147.14 1276.62 1146.76L1276.62 1146.76Z" fill="#F2F2F2"/>
<path d="M1261.5 1122.21C1259.33 1125.51 1256.34 1128.2 1252.83 1130.01C1249.32 1131.82 1245.41 1132.7 1241.46 1132.55C1231.31 1132.07 1222.86 1125 1215.24 1118.28L1192.73 1098.4L1207.63 1097.69C1218.35 1097.18 1229.34 1096.7 1239.55 1100C1249.75 1103.31 1259.17 1111.26 1261.03 1121.82" fill="#2BD832"/>
<path d="M1282.56 1155.56C1272.44 1137.67 1260.71 1117.79 1239.75 1111.43C1233.92 1109.67 1227.81 1109.04 1221.74 1109.57C1219.83 1109.74 1220.31 1112.68 1222.22 1112.52C1232.38 1111.67 1242.53 1114.36 1250.95 1120.12C1259.05 1125.63 1265.36 1133.3 1270.7 1141.42C1273.97 1146.4 1276.9 1151.59 1279.83 1156.77C1280.77 1158.43 1283.51 1157.23 1282.56 1155.56Z" fill="#F2F2F2"/>
<path d="M995.449 939.093H488.392V830.756H995.449V939.093Z" fill="white"/>
<path d="M554.096 912.446C569.301 912.446 581.627 900.124 581.627 884.925C581.627 869.726 569.301 857.404 554.096 857.404C538.89 857.404 526.564 869.726 526.564 884.925C526.564 900.124 538.89 912.446 554.096 912.446Z" fill="#5E6EE4"/>
<path d="M617.68 866.578C616.463 866.578 615.296 867.061 614.435 867.921C613.575 868.781 613.091 869.948 613.091 871.164C613.091 872.381 613.575 873.548 614.435 874.408C615.296 875.268 616.463 875.751 617.68 875.751H952.698C953.913 875.748 955.077 875.264 955.935 874.404C956.794 873.544 957.276 872.379 957.276 871.164C957.276 869.95 956.794 868.785 955.935 867.925C955.077 867.065 953.913 866.581 952.698 866.578H617.68Z" fill="#5E6EE4"/>
<path d="M617.68 894.098C616.463 894.096 615.295 894.576 614.432 895.435C613.57 896.293 613.084 897.459 613.082 898.675C613.079 899.892 613.56 901.059 614.419 901.921C615.277 902.783 616.443 903.269 617.66 903.272H829.462C830.065 903.273 830.663 903.155 831.221 902.925C831.778 902.695 832.285 902.357 832.712 901.931C833.139 901.505 833.477 900.999 833.708 900.442C833.94 899.885 834.059 899.288 834.059 898.685C834.059 898.082 833.94 897.485 833.708 896.928C833.477 896.371 833.139 895.865 832.712 895.439C832.285 895.013 831.778 894.675 831.221 894.445C830.663 894.215 830.065 894.097 829.462 894.098H617.68Z" fill="#5E6EE4"/>
<path d="M995.449 939.093H488.392V830.756H995.449V939.093ZM496.133 931.354H987.707V838.495H496.133V931.354Z" fill="#CCCCCC"/>
<path d="M1138.24 912.183C1137.75 910.734 1137.58 909.196 1137.75 907.675C1137.91 906.154 1138.41 904.688 1139.21 903.381C1140 902.074 1141.07 900.957 1142.35 900.108C1143.62 899.26 1145.06 898.701 1146.58 898.471L1152.32 875.256L1167.28 875.301L1158.72 907.972C1158.93 910.538 1158.2 913.096 1156.66 915.159C1155.12 917.223 1152.87 918.649 1150.35 919.168C1147.82 919.687 1145.2 919.263 1142.97 917.976C1140.73 916.688 1139.05 914.627 1138.24 912.183Z" fill="#FFB7B7"/>
<path d="M1163.5 897.16L1140.59 895.572L1151.69 829.451L1144.62 756.645L1167.79 747.15L1183.24 828.002L1183.2 828.149L1163.5 897.16Z" fill="#5E6EE4"/>
<path d="M986.296 889.41C986.27 887.881 986.579 886.364 987.202 884.966C987.825 883.569 988.748 882.326 989.904 881.323C991.06 880.321 992.422 879.584 993.894 879.164C995.365 878.745 996.911 878.653 998.422 878.896L1010.98 858.539L1025.21 863.147L1007.08 891.646C1006.5 894.157 1005.03 896.369 1002.93 897.864C1000.83 899.359 998.257 900.032 995.695 899.756C993.133 899.481 990.761 898.275 989.029 896.368C987.297 894.462 986.324 891.986 986.296 889.41Z" fill="#FFB7B7"/>
<path d="M1056.97 1143.95H1044.78L1038.98 1096.94L1056.97 1096.94L1056.97 1143.95Z" fill="#FFB7B7"/>
<path d="M1060.08 1155.76L1020.77 1155.76V1155.26C1020.77 1151.21 1022.38 1147.32 1025.25 1144.45C1028.12 1141.58 1032.01 1139.97 1036.07 1139.97H1036.07L1060.08 1139.97L1060.08 1155.76Z" fill="#2F2E41"/>
<path d="M1142.02 1143.95H1129.83L1124.03 1096.94L1142.03 1096.94L1142.02 1143.95Z" fill="#FFB7B7"/>
<path d="M1145.13 1155.76L1105.82 1155.76V1155.26C1105.82 1151.21 1107.43 1147.32 1110.3 1144.45C1113.17 1141.58 1117.07 1139.97 1121.12 1139.97H1121.12L1145.13 1139.97L1145.13 1155.76Z" fill="#2F2E41"/>
<path d="M1130.43 702.54C1146.43 702.54 1159.39 689.578 1159.39 673.588C1159.39 657.598 1146.43 644.636 1130.43 644.636C1114.43 644.636 1101.47 657.598 1101.47 673.588C1101.47 689.578 1114.43 702.54 1130.43 702.54Z" fill="#FFB8B8"/>
<path d="M1120.65 672C1116.32 673.809 1111.47 673.944 1107.05 672.376C1102.63 670.809 1098.95 667.652 1096.73 663.521C1094.51 659.39 1093.91 654.581 1095.04 650.031C1096.18 645.48 1098.96 641.515 1102.86 638.907C1110.57 633.75 1122.08 635.457 1129.56 641.438C1134.6 639.147 1140.23 638.518 1145.65 639.642C1151.07 640.766 1155.99 643.586 1159.7 647.691C1166.92 656.034 1167.71 669.276 1162.45 679.001C1160.15 684.071 1159.13 689.627 1159.48 695.182C1159.83 700.738 1161.53 706.123 1164.45 710.867C1162.19 710.774 1157.21 710.356 1150.98 709.818C1149.17 709.663 1148.39 704.37 1146.42 704.199C1144.67 704.049 1141.75 709.023 1139.92 708.869C1126.39 707.726 1111.24 706.565 1104.38 706.792C1109.55 694.688 1114.73 682.583 1120.65 672Z" fill="#2F2E41"/>
<path d="M1152.64 877.55C1152.64 877.55 1162.05 887.251 1156.31 937.345L1152.34 1043.71L1145.31 1137.9L1122.71 1136.39L1102.85 919.617L1075.05 998.942L1060.09 1130.08L1038.4 1128.58L1034.7 998.168L1044.2 897.382L1152.64 877.55Z" fill="#FF76B8"/>
<path d="M1059.48 903.449C1047.91 903.45 1043.25 902.06 1042.91 901.953L1042.38 901.784L1042.47 901.23C1042.55 900.775 1050.32 855.491 1060.98 831.717L1068.48 735.303C1068.69 732.439 1069.87 729.731 1071.82 727.622C1073.77 725.513 1076.38 724.127 1079.22 723.689L1079.32 724.326L1079.22 723.689L1098.29 720.696L1109.95 710.429L1137.9 711.973L1140.36 723.789C1143.71 724.723 1165.76 731.48 1167.94 747.659L1167.97 747.862L1167.88 748.043L1127.47 825.741C1130.89 829.109 1157.87 856.818 1159.7 892.24L1159.74 893.092L1158.91 892.902C1158.83 892.886 1150.2 891.246 1104.79 898.919C1083.79 902.467 1069.2 903.449 1059.48 903.449Z" fill="#5E6EE4"/>
<path d="M1014.69 888.941L998.216 876.263L1034.97 802.748L1069.16 730.696C1069.64 729.689 1070.41 728.853 1071.38 728.298C1072.35 727.744 1073.46 727.499 1074.57 727.596C1075.68 727.693 1076.74 728.127 1077.59 728.84C1078.45 729.553 1079.07 730.511 1079.36 731.585L1087.83 762.273L1061.36 831.095L1014.69 888.941Z" fill="#5E6EE4"/>
<path d="M1340.71 1158H849.136C848.793 1158 848.465 1157.86 848.223 1157.62C847.981 1157.38 847.845 1157.05 847.845 1156.71C847.845 1156.37 847.981 1156.04 848.223 1155.8C848.465 1155.56 848.793 1155.42 849.136 1155.42H1340.71C1341.05 1155.42 1341.38 1155.56 1341.62 1155.8C1341.86 1156.04 1342 1156.37 1342 1156.71C1342 1157.05 1341.86 1157.38 1341.62 1157.62C1341.38 1157.86 1341.05 1158 1340.71 1158Z" fill="#2BD832"/>
<path d="M774.099 768.505H704.427V698.86H739.263V701.439H707.007V765.925H771.518V733.682H774.099V768.505Z" fill="#5E6EE4"/>
<path d="M737.956 747.931L721.031 728.504L723.949 725.963L737.989 742.078L776.524 698.862L779.413 701.437L737.956 747.931Z" fill="#5E6EE4"/>
<path d="M341.695 692.72L343.324 684.579C343.324 684.579 367.283 676.437 369.964 692.72H341.695Z" fill="#2BD832"/>
<path d="M387.678 1141H403.385L410.858 1080.44H387.675L387.678 1141Z" fill="#FFB6B6"/>
<path d="M383.671 1135.88L414.605 1135.88H414.606C419.834 1135.88 424.848 1137.95 428.545 1141.65C432.242 1145.34 434.319 1150.36 434.32 1155.58V1156.22L383.672 1156.22L383.671 1135.88Z" fill="#2F2E41"/>
<path d="M311.957 1141H327.665L335.138 1080.44H311.955L311.957 1141Z" fill="#FFB6B6"/>
<path d="M307.95 1135.88L338.884 1135.88H338.886C344.114 1135.88 349.128 1137.95 352.825 1141.65C356.522 1145.34 358.599 1150.36 358.599 1155.58V1156.22L307.951 1156.22L307.95 1135.88Z" fill="#2F2E41"/>
<path d="M318.89 726.915L300.971 725.286L289.569 779.02L291.198 827.869L309.116 893.001L333.55 878.346L320.519 811.586L318.89 726.915Z" fill="#5E6EE4"/>
<path d="M307.549 887.302L311.56 921.496L315.326 1001.28L306.673 1120.18L337.622 1118.52L352.792 994.769L362.057 937.779L375.088 1002.91L383.233 1125.03L414.997 1122.49V1002.48L415.811 914.983L404.409 880.789L307.549 887.302Z" fill="#FF76B8"/>
<path d="M374.274 694.349C374.274 694.349 362.871 678.066 341.695 689.464L331.921 702.49L300.972 725.287L307.487 801.817L299.343 897.886L414.997 896.258L395.45 800.188V697.606L374.274 694.349Z" fill="#5E6EE4"/>
<path opacity="0.25" d="M311.56 752.313L302.22 863.945L314.004 803.444L311.56 752.313Z" fill="#FF6884"/>
<path d="M505.973 845.91C504.31 846.475 502.543 846.669 500.797 846.477C499.052 846.285 497.369 845.714 495.868 844.802C494.367 843.89 493.085 842.66 492.111 841.199C491.137 839.738 490.495 838.081 490.231 836.345L463.579 829.761L463.631 812.595L501.139 822.422C504.085 822.171 507.021 823.01 509.39 824.779C511.759 826.548 513.397 829.124 513.993 832.02C514.589 834.915 514.102 837.928 512.624 840.488C511.145 843.049 508.779 844.978 505.973 845.91H505.973Z" fill="#FFB6B6"/>
<path d="M478.103 812.39L473.621 838.055L484.854 840.015L489.335 814.35L478.103 812.39Z" fill="#2BD832"/>
<path d="M356.146 675.541C374.211 675.541 388.856 660.902 388.856 642.843C388.856 624.785 374.211 610.146 356.146 610.146C338.08 610.146 323.436 624.785 323.436 642.843C323.436 660.902 338.08 675.541 356.146 675.541Z" fill="#FFB6B6"/>
<path d="M358.589 671.687C350.587 673.607 342.155 672.486 334.933 668.541C327.711 664.596 322.213 658.109 319.508 650.339C316.802 642.569 317.082 634.072 320.292 626.497C323.503 618.922 329.415 612.81 336.881 609.348C342.631 606.783 348.918 605.655 355.201 606.062C364.984 606.576 374.492 610.19 384.285 609.924L385.704 612.204L391.054 610.907L392.2 615.153L393.609 615.104C396.133 619.793 392.072 626.505 386.746 626.448C384.652 626.207 382.587 625.757 380.582 625.106C378.52 624.664 376.091 624.774 374.669 626.331C372.822 628.354 373.626 631.511 374.011 634.223C374.397 636.936 373.434 640.589 370.695 640.678C369.296 640.723 367.965 639.72 366.59 639.983C364.989 640.291 364.179 642.224 364.413 643.837C364.81 645.419 365.456 646.929 366.329 648.308C368.181 652.345 368.476 656.923 367.156 661.164C365.837 665.404 362.997 669.008 359.182 671.284" fill="#2F2E41"/>
<path d="M387.675 703.897L395.45 697.605C395.45 697.605 411.141 696.515 410.858 713.143L435.965 791.65L484.131 808.706L477.641 842.227L409.493 816.276L374.877 758.924L387.675 703.897Z" fill="#5E6EE4"/>
<path d="M607.864 1158H116.29C115.948 1158 115.62 1157.86 115.378 1157.62C115.136 1157.38 115 1157.05 115 1156.71C115 1156.37 115.136 1156.04 115.378 1155.8C115.62 1155.56 115.948 1155.42 116.29 1155.42H607.864C608.207 1155.42 608.535 1155.56 608.777 1155.8C609.019 1156.04 609.155 1156.37 609.155 1156.71C609.155 1157.05 609.019 1157.38 608.777 1157.62C608.535 1157.86 608.207 1158 607.864 1158Z" fill="#2BD832"/>
<circle cx="383.5" cy="647.5" r="4.5" fill="black"/>
</svg>
