<svg xmlns="http://www.w3.org/2000/svg" version="1.1" xmlns:xlink="http://www.w3.org/1999/xlink" xmlns:svgjs="http://svgjs.dev/svgjs" viewBox="0 0 800 800"><defs><linearGradient x1="50%" y1="0%" x2="50%" y2="100%" id="uundulate-grad"><stop stop-color="hsl(37, 99%, 67%)" stop-opacity="1" offset="45%"></stop><stop stop-color="hsl(316, 73%, 52%)" stop-opacity="1" offset="100%"></stop></linearGradient></defs><g stroke-width="2" stroke="url(#uundulate-grad)" fill="none"><path d="M674.8927221704239 277.024328196295C679.2467034437294 327.28374651575473 550.0051159394316 369.9125172815732 478.58323894496937 441.1780813187913C407.16136195050717 512.4436453560097 405.2431145125131 611.9356569121454 332.0677125970051 619.0990355749427C258.89231068149707 626.2624142377399 145.55070294173618 546.7969213739198 127.34130975053102 475.5622989002177C109.13191655932593 404.32767642651584 201.78396941151067 336.90034815398997 244.66262527922083 277.1728477011733C287.541281146931 217.4453472483566 288.7793780084819 204.96195804248714 333.15885791554047 188.87029672669797C377.53833782259915 172.77863541090886 386.4895737800018 181.56745016255195 457.6841288331025 199.93287338538477C528.8786838862029 218.29829660821758 670.5387408971183 226.7649098768352 674.8927221704239 277.024328196295C679.2467034437294 327.28374651575473 550.0051159394316 369.9125172815732 478.58323894496937 441.1780813187913 "></path><path d="M662.3975679178264 282.6141328472624C666.5536409514364 330.5890321522013 543.1866710609702 371.2801315195734 475.01124302080166 439.30635173691803C406.83581498063324 507.3325719542627 405.00476060800247 602.3022193487561 335.15551332501764 609.139989890517C265.3062660420327 615.977760432278 157.11654956317 540.1243354259042 139.73485606247425 472.1276503373705C122.35316256177845 404.1309652488368 210.79375846613658 339.76851553415304 251.7233845216781 282.7559014655553C292.6530105772197 225.7432873969576 293.8348303087 213.82732497317306 336.1970611290742 198.46710280810163C378.55929194944827 183.1068806430302 387.1036535451508 191.49620381505315 455.0620924594741 209.0268350732117C523.0205313737974 226.55746633137034 658.2414948842165 234.6392335423235 662.3975679178264 282.6141328472624C666.5536409514364 330.5890321522013 543.1866710609702 371.2801315195734 475.01124302080166 439.30635173691803 "></path><path d="M649.9024441828071 288.20393749822983C653.8606089767213 333.8943177886478 536.3682567000869 372.6477457575736 471.4392776142122 437.43462215504474C406.51029852833744 502.22149855251587 404.7664372210701 592.6687817853666 338.2433445706083 599.1809442060915C271.72025192014644 605.6931066268162 168.682426702182 533.4517494778886 152.12843289199554 468.6930017745233C135.5744390818091 403.93425407115785 219.80357803834067 342.6366829143161 258.78417428171355 288.33895522993737C297.7647705250864 234.04122754555857 298.89031312649627 222.69269190385904 339.23529486018595 208.06390888950529C379.5802765938756 193.43512587515153 387.717763827878 201.42495746755435 452.4400866034241 218.12079676103872C517.1624093789701 234.8166360545231 645.944279388893 242.51355720781186 649.9024441828071 288.20393749822983C653.8606089767213 333.8943177886478 536.3682567000869 372.6477457575736 471.4392776142122 437.43462215504474 "></path><path d="M637.4073204477879 293.7937421491972C641.1675770020064 337.1996034250943 529.5498423392037 374.0153599955738 467.8673122076227 435.56289257317144C406.18478207604176 497.11042515076906 404.5281138341377 583.0353442219772 341.331175816199 589.2218985216657C278.13423779826024 595.4084528213542 180.248303841194 526.7791635298731 164.52200972151684 465.25835321167597C148.79571560183973 403.7375428934788 228.8133976105447 345.50485029447924 265.84496404174894 293.9220089943194C302.87653047295316 242.33916769415953 303.9457959442926 231.55805883454497 342.2735285912977 217.66071497090888C380.60126123830287 203.76337110727286 388.3318741106052 211.3537111200555 449.81808074737387 227.21475844886567C511.30428738414275 243.07580577767584 633.6470638935695 250.38788087330016 637.4073204477879 293.7937421491972C641.1675770020064 337.1996034250943 529.5498423392037 374.0153599955738 467.8673122076227 435.56289257317144 "></path><path d="M624.9121967127687 299.3835315413756C628.4745450272915 340.5048738027518 522.7314279783204 375.38295897478497 464.29534680103325 433.69114773250897C405.85926562374596 491.99933649023296 404.2897904472053 573.4018913997987 344.41900706178967 579.2628375784509C284.548223676374 585.1237837571032 191.814180980206 520.1065623230686 176.9155865510382 461.8236893900397C162.01699212187037 403.5408164570108 237.82321718274875 348.3730024158533 272.9057538017844 299.5050474999124C307.98829042081996 250.63709258397148 309.0012787620889 240.42341050644188 345.31176232240955 227.25750579352348C381.6222458827302 214.09160108060513 388.9459843933324 221.28244951376763 447.19607489132386 236.30870487790355C505.4461653893152 251.33496024203953 621.349848398246 258.2621892799994 624.9121967127687 299.3835315413756C628.4745450272915 340.5048738027518 522.7314279783204 375.38295897478497 464.29534680103325 433.69114773250897 "></path><path d="M612.4170729777494 304.973336192343C615.7815130525764 343.8101594391983 515.9130136174372 376.7505732127852 460.72338139444366 431.81941815063567C405.53374917145015 486.88826308848616 404.0514670602729 563.7684538364093 347.50683830738035 569.3037918940254C290.9622095544878 574.8391299516413 203.380058119218 513.433976375053 189.30916338055948 458.3890408271925C175.23826864190102 403.34410527933187 246.83303675495284 351.2411697960164 279.9665435618198 305.08810126429444C313.10005036868677 258.93503273257244 314.0567615798851 249.2887774371278 348.34999605352135 236.85431187492713C382.6432305271576 224.41984631272646 389.56009467605963 231.21120316626883 444.5740690352736 245.40266656573056C499.58804339448784 259.5941299651923 609.0526329029224 266.1365129454877 612.4170729777494 304.973336192343C615.7815130525764 343.8101594391983 515.9130136174372 376.7505732127852 460.72338139444366 431.81941815063567 "></path><path d="M599.9219645015191 310.5631408433104C603.0884963366505 347.1154450756448 509.094614515343 378.1181874507854 457.15143124664314 429.94768856876226C405.2082479779434 481.77718968673923 403.81315893212945 554.1350162730198 350.5946848117601 559.3447462095996C297.3762106913906 564.5544761461795 214.94595051701907 506.76139042703744 201.7027554688699 454.9543922643452C188.45956042072072 403.1473941016528 255.84287158594594 354.10933717617945 287.02734858064423 310.6711550286765C318.2118255753426 267.2329728811734 319.1122596564705 258.1541443678138 351.3882450434222 246.4511179563308C383.6642304303739 234.74809154484774 390.1742202175758 241.13995681877003 441.9520784380127 254.4966282535575C493.72993665844956 267.85329968834503 596.7554326663878 274.010836610976 599.9219645015191 310.5631408433104C603.0884963366505 347.1154450756448 509.094614515343 378.1181874507854 457.15143124664314 429.94768856876226 "></path><path d="M587.4268407664999 316.15294549427784C590.3954643619356 350.4207307120913 502.27620015445973 379.48580168878567 453.5794658400537 428.07595898688896C404.8827315256476 476.6661162849923 403.5748355451972 544.5015787096304 353.68251605735077 549.3857005251741C303.79019656950436 554.2698223407176 226.51182765603102 500.088804479022 214.0963322983912 451.5197437014979C201.68083694075136 402.9506829239738 264.85269115815004 356.9775045563426 294.0881383406797 316.2542087930585C323.3235855232094 275.5309130297744 324.1677424742668 267.01951129849976 354.42647877453396 256.04792403773445C384.68521507480125 245.07633677696907 390.7883305003031 251.06871047127123 439.33007258196255 263.5905899413845C487.871814663622 276.1124694114978 584.4582171710642 281.8851602764644 587.4268407664999 316.15294549427784C590.3954643619356 350.4207307120913 502.27620015445973 379.48580168878567 453.5794658400537 428.07595898688896 "></path><path d="M574.9317017726917 321.7427501452453C577.7024171284315 353.7260163485378 495.4577705347874 380.8534159267859 450.00748517467514 426.20422940501567C404.55719981456275 471.5550428832455 403.3364968994756 534.868141146241 356.7703320441524 539.4266548407484C310.2041671888291 543.9851685352556 238.07768953625396 493.4162185310064 226.48989386912342 448.0850951386507C214.90209820199289 402.75397174629484 273.862495471565 359.84567193650565 301.14891284192606 321.8372625574405C328.43533021228706 283.82885317837537 329.223210033274 275.8848782291857 357.46469724685676 265.64473011913805C385.7061844604395 255.4045820090904 391.40242552424115 260.99746412377243 436.70805146712337 272.68455162921146C482.0136774100056 284.37163913465054 572.1609864169517 289.7594839419527 574.9317017726917 321.7427501452453C577.7024171284315 353.7260163485378 495.4577705347874 380.8534159267859 450.00748517467514 426.20422940501567 "></path><path d="M562.4365780376722 327.33255479621266C565.0093851537165 357.03130198498434 488.63935617390416 382.22103016478616 446.43551976808556 424.33249982314237C404.23168336226706 466.4439694814986 403.0981735125432 525.2347035828516 359.85816328974306 529.4676091563226C316.61815306694285 533.7005147297937 249.64356667526596 486.7436325829909 238.88347069864477 444.65044657580336C228.12337472202353 402.5572605686159 282.87231504376905 362.7138393166688 308.20970260196145 327.42031632182255C333.54709016015386 292.1267933269764 334.2786928510703 284.75024515987167 360.5029309779685 275.2415362005417C386.7271691048668 265.73282724121174 392.01653580696836 270.9262177762736 434.08604561107325 281.77851331703846C476.15555541517824 292.6308088578033 559.8637709216281 297.633807607441 562.4365780376722 327.33255479621266C565.0093851537165 357.03130198498434 488.63935617390416 382.22103016478616 446.43551976808556 424.33249982314237 "></path><path d="M549.9414695614421 332.9223594471801C552.3163684377906 360.33658762143085 481.82095707180997 383.5886444027863 442.86356962028515 422.4607702412691C403.9061821687603 461.33289607975166 402.8598653843999 515.6012660194622 362.9460097941228 519.508563471897C323.0321542038457 523.4158609243318 261.209459073067 480.07104663497535 251.27706278695513 441.21579801295616C241.34466650084323 402.36054939093685 291.8821498747622 365.58200669683185 315.2705076207859 333.0033700862046C338.65886536680966 300.42473347557734 339.33419092765564 293.6156120905576 363.54117996786937 284.83834228194536C387.7481690080832 276.06107247333307 392.63066134848464 280.8549714287748 431.4640550138122 290.8724750048654C470.29744867913985 300.88997858095604 547.5665706850937 305.5081312729293 549.9414695614421 332.9223594471801C552.3163684377906 360.33658762143085 481.82095707180997 383.5886444027863 442.86356962028515 422.4607702412691 "></path><path d="M537.4463458264229 338.5121640981475C539.6233364630757 363.64187325787736 475.0025427109267 384.9562586407866 439.29160421369556 420.58904065939566C403.5806657164645 456.22182267800486 402.6215419974675 505.96782845607277 366.0338410397135 509.54951778747136C329.44614008195947 513.13120711887 272.775336212079 473.3984606869599 263.6706396164765 437.78114945010884C254.56594302087387 402.1638382132579 300.89196944696624 368.450174076995 322.33129738082135 338.58642385058664C343.7706253146764 308.7226736241783 344.3896737454519 302.48097902124357 366.57941369898117 294.435148363349C388.7691536525105 286.3893177054544 393.24477163121185 290.783725081276 428.8420491577622 299.96643669269235C464.4393266843124 309.1491483041088 535.2693551897701 313.3824549384176 537.4463458264229 338.5121640981475C539.6233364630757 363.64187325787736 475.0025427109267 384.9562586407866 439.29160421369556 420.58904065939566 "></path><path d="M524.9512220914036 344.10195349032585C526.9303044883607 366.94714363553487 468.18412835004347 386.32385761999774 435.7196388071061 418.7172958187333C403.2551492641687 451.11073401746887 402.38321861053504 496.3343756338943 369.12167228530416 499.59045684425666C335.8601259600732 502.84653805461903 284.341213351091 466.72585948015524 276.0642164459978 434.3464856284726C267.7872195409045 401.96711177678986 309.90178901917034 371.318326198369 329.3920871408568 344.1694623561796C348.8823852625432 317.02059851399025 349.44515656324813 311.34633069314043 369.617647430093 304.03193918596355C389.7901382969378 296.7175476787867 393.858881913939 300.7124634749881 426.22004330171205 309.0603831217303C458.58120468948505 317.4083027684725 522.9721396944465 321.25676334511684 524.9512220914036 344.10195349032585C526.9303044883607 366.94714363553487 468.18412835004347 386.32385761999774 435.7196388071061 418.7172958187333 "></path><path d="M512.4560983563844 349.69175814129323C514.2372725136457 370.2524292719813 461.3657139891602 387.69147185799795 432.1476734005166 416.84556623685995C402.929632811873 445.99966061572195 402.14489522360265 486.7009380705049 372.20950353089484 489.6314111598309C342.274111838187 492.56188424915706 295.907090490103 460.05327353213977 288.45779327551907 430.9118370656253C281.00849606093516 401.77040059911087 318.9116085913744 374.1864935785321 336.4528769008922 349.75251612056167C353.99414521041 325.3185386625912 354.50063938104444 320.2116976238264 372.6558811612048 313.6287452673672C390.8111229413651 307.045792910908 394.4729921966662 310.6412171274893 423.59803744566193 318.15434480955724C452.7230826946576 325.66747249162523 510.674924199123 329.13108701060514 512.4560983563844 349.69175814129323C514.2372725136457 370.2524292719813 461.3657139891602 387.69147185799795 432.1476734005166 416.84556623685995 "></path><path d="M499.96097462136504 355.28157805104973C501.5442405389307 373.55773016721696 454.54729962827696 389.05910135478723 428.57570799392704 414.97385191377566C402.6041163595772 440.88860247276415 401.9065718366702 477.06751576590443 375.2973347764855 479.67238073419435C348.6880977163008 482.27724570248427 307.472967629115 453.38070284291325 300.8513701050404 427.4772037615671C294.2297725809658 401.57370468022094 327.92142816357847 377.05467621748426 343.5136666609276 355.33558514373277C359.10590515827676 333.61649406998123 359.55612219884074 329.0770798133014 375.6941148923166 323.2255666075599C391.8321075857924 317.3740534018184 395.08710247939337 320.5699860387795 420.9760315896118 327.2483217561733C446.86496069983025 333.92665747356705 498.3777087037994 337.00542593488257 499.96097462136504 355.28157805104973C501.5442405389307 373.55773016721696 454.54729962827696 389.05910135478723 428.57570799392704 414.97385191377566 "></path><path d="M487.46585088634583 360.8713827020172C488.85120856421577 376.8630158036634 447.7288852673937 390.42671559278745 425.00374258733757 413.10212233190236C402.2785999072814 435.7775290710173 401.6682484497378 467.434078202515 378.3851660220762 469.7133350497687C355.1020835944145 471.99259189702235 319.038844768127 446.7081168948977 313.2449469345617 424.04255519871987C307.45104910099644 401.37699350254195 336.9312477357825 379.9228435976474 350.57445642096303 360.9186389081148C364.2176651061435 341.91443421858224 364.611605016637 337.9424467439874 378.7323486234284 332.8223726889636C392.8530922302198 327.70229863393973 395.7012127621206 330.4987396912807 418.3540257335617 336.34228344400026C441.0068387050028 342.1858271967198 486.0804932084759 344.87974960037087 487.46585088634583 360.8713827020172C488.85120856421577 376.8630158036634 447.7288852673937 390.42671559278745 425.00374258733757 413.10212233190236 "></path><path d="M474.9707271513265 366.46118735298455C476.1581765895008 380.16830144011 440.91047090651045 391.7943298307877 421.43177718074804 411.23039275002907C401.95308345498563 430.66645566927036 401.4299250628054 457.8006406391256 381.47299726766687 459.754289365343C361.51606947252833 461.70793809156044 330.604721907139 440.0355309468822 325.63852376408306 420.6079066358726C320.6723256210271 401.18028232486296 345.94106730798654 382.79101097781046 357.6352461809984 366.50169267249686C369.3294250540103 350.2123743671832 369.6670878344333 346.80781367467335 381.7705823545402 342.4191787703672C393.8740768746471 338.03054386606107 396.3153230448478 340.4274933437819 415.73201987751156 345.43624513182726C435.1487167101754 350.44499691987255 473.7832777131523 352.7540732658592 474.9707271513265 366.46118735298455C476.1581765895008 380.16830144011 440.91047090651045 391.7943298307877 421.43177718074804 411.23039275002907 "></path><path d="M462.4756186750963 372.050992003952C463.46515987357486 383.4735870765565 434.09207180441626 393.16194406878793 417.8598270329476 409.3586631681557C401.6275822614789 425.5553822675235 401.1916169346621 448.1672030757362 384.5608437720466 449.7952436809174C367.93007060943114 451.4232842860986 342.17061430494005 433.3629449988667 338.0321158523934 417.17325807302535C333.8936173998468 400.98357114718397 354.9509021389797 385.6591783579736 364.69605119982293 372.08474643687885C374.44120026066616 358.51031451578416 374.7225859110186 355.6731806053593 384.80883134444105 352.01598485177084C394.89507677786344 348.3587890981824 396.92944858636406 350.3562469962831 413.11002928025056 354.5302068196542C429.29060997413706 358.7041666430253 461.48607747661777 360.6283969313475 462.4756186750963 372.050992003952C463.46515987357486 383.4735870765565 434.09207180441626 393.16194406878793 417.8598270329476 409.3586631681557 "></path><path d="M449.98049494007705 377.6407966549194C450.7721278988599 386.778872713003 427.273657443533 394.52955830678815 414.28786162635805 407.48693358628236C401.3020658091831 420.4443088657766 400.95329354772963 438.53376551234675 387.6486750176373 439.8361979964917C374.3440564875449 441.13863048063666 353.73649144395205 426.69035905085116 350.4256926819147 413.7386095101781C347.11489391987743 400.786859969505 363.96072171118374 388.52734573813666 371.7568409598583 377.6678002012609C379.5529602085329 366.8082546643852 379.7780687288149 364.53854753604526 387.8470650755528 361.6127909331745C395.91606142229074 358.68703433030373 397.5435588690912 360.2850006487843 410.48802342420043 363.62416850748116C423.43248797930966 366.96333636617805 449.1888619812942 368.5027205968358 449.98049494007705 377.6407966549194C450.7721278988599 386.778872713003 427.273657443533 394.52955830678815 414.28786162635805 407.48693358628236 "></path><path d="M437.4853559462687 383.23058604709774C438.07908066535583 390.08414309066046 420.4552278238607 395.8971572859993 410.71588096097946 405.61518874562C400.9765340980983 415.33322020524065 400.7149549020082 428.9003126901683 390.7364910044389 429.877137053277C380.75802710686963 430.8539614163857 365.30235332417493 420.01775784404657 362.819254252647 410.3039456885418C360.336155181119 400.590133533037 372.97052602459877 391.3954978595107 378.8176154611047 383.25083870685387C384.6647048976106 375.10617955419707 384.8335362878221 373.4038992079421 390.88528354787553 371.2095817557891C396.937030807929 369.015264303636 398.15765389302936 370.21373904249646 407.86600230936125 372.7181149365191C417.5743507256932 375.22249083054174 436.8916312271816 376.3770290035351 437.4853559462687 383.23058604709774C438.07908066535583 390.08414309066046 420.4552278238607 395.8971572859993 410.71588096097946 405.61518874562 "></path><path d="M424.9902474700385 388.8203906980652C425.38606394942997 393.389428727107 413.6368287217665 397.26477152399957 407.14393081317905 403.74345916374665C400.65103290459155 410.2221468034938 400.47664677386484 419.26687512677887 393.82433750881864 419.9180913688513C387.17202824377244 420.5693076109238 376.868245721976 413.34517189603105 375.21284634095736 406.8692971256945C373.5574469599387 400.393422355358 381.98036085559187 394.2636652396738 385.87842047992916 388.8338924712359C389.77648010426645 383.404119702798 389.88903436440745 382.2692661386281 393.9235325377764 380.8063878371927C397.9580307111454 379.34350953575733 398.77177943454564 380.1424926949976 405.24401171210025 381.81207662434605C411.7162439896548 383.4816605536945 424.5944309906471 384.2513526690234 424.9902474700385 388.8203906980652C425.38606394942997 393.389428727107 413.6368287217665 397.26477152399957 407.14393081317905 403.74345916374665 "></path><path d="M412.49512373501926 394.41019534903256C412.693031974715 396.6947143635535 406.81841436088325 398.6323857619998 403.5719654065895 401.87172958187335C400.3255164522958 405.11107340174686 400.2383233869324 409.6334375633894 396.9121687544093 409.95904568442563C393.58601412188625 410.2846538054619 388.434122860988 406.6725859480155 387.6064231704787 403.43464856284726C386.77872347996936 400.196711177679 390.99018042779596 397.1318326198369 392.9392102399646 394.41694623561796C394.88824005213326 391.70205985139904 394.9445171822037 391.134633069314 396.9617662688882 390.40319391859634C398.9790153555727 389.67175476787867 399.3858897172728 390.0712463474988 402.6220058560501 390.90603831217305C405.8581219948274 391.74083027684725 412.29721549532354 392.1256763345117 412.49512373501926 394.41019534903256C412.693031974715 396.6947143635535 406.81841436088325 398.6323857619998 403.5719654065895 401.87172958187335 "></path></g></svg>