<?xml version="1.0" standalone="no"?>
<svg xmlns:xlink="http://www.w3.org/1999/xlink" id="wave" style="transform:rotate(0deg); transition: 0.3s" viewBox="0 0 1440 490" version="1.1" xmlns="http://www.w3.org/2000/svg"><defs><linearGradient id="sw-gradient-0" x1="0" x2="0" y1="1" y2="0"><stop stop-color="rgba(71.311, 121.472, 212.061, 1)" offset="0%"/><stop stop-color="rgba(81.083, 11, 255, 1)" offset="100%"/></linearGradient></defs><path style="transform:translate(0, 0px); opacity:1" fill="url(#sw-gradient-0)" d="M0,343L80,351.2C160,359,320,376,480,318.5C640,261,800,131,960,73.5C1120,16,1280,33,1440,89.8C1600,147,1760,245,1920,253.2C2080,261,2240,180,2400,179.7C2560,180,2720,261,2880,261.3C3040,261,3200,180,3360,179.7C3520,180,3680,261,3840,294C4000,327,4160,310,4320,253.2C4480,196,4640,98,4800,49C4960,0,5120,0,5280,16.3C5440,33,5600,65,5760,130.7C5920,196,6080,294,6240,310.3C6400,327,6560,261,6720,212.3C6880,163,7040,131,7200,155.2C7360,180,7520,261,7680,302.2C7840,343,8000,343,8160,334.8C8320,327,8480,310,8640,253.2C8800,196,8960,98,9120,106.2C9280,114,9440,229,9600,253.2C9760,278,9920,212,10080,163.3C10240,114,10400,82,10560,130.7C10720,180,10880,310,11040,302.2C11200,294,11360,147,11440,73.5L11520,0L11520,490L11440,490C11360,490,11200,490,11040,490C10880,490,10720,490,10560,490C10400,490,10240,490,10080,490C9920,490,9760,490,9600,490C9440,490,9280,490,9120,490C8960,490,8800,490,8640,490C8480,490,8320,490,8160,490C8000,490,7840,490,7680,490C7520,490,7360,490,7200,490C7040,490,6880,490,6720,490C6560,490,6400,490,6240,490C6080,490,5920,490,5760,490C5600,490,5440,490,5280,490C5120,490,4960,490,4800,490C4640,490,4480,490,4320,490C4160,490,4000,490,3840,490C3680,490,3520,490,3360,490C3200,490,3040,490,2880,490C2720,490,2560,490,2400,490C2240,490,2080,490,1920,490C1760,490,1600,490,1440,490C1280,490,1120,490,960,490C800,490,640,490,480,490C320,490,160,490,80,490L0,490Z"/></svg>